<?xml version="1.0" encoding="utf-8"?>
<!-- Generator: Adobe Illustrator 14.0.0, SVG Export Plug-In . SVG Version: 6.00 Build 43363)  -->
<!DOCTYPE svg PUBLIC "-//W3C//DTD SVG 1.1//EN" "http://www.w3.org/Graphics/SVG/1.1/DTD/svg11.dtd">
<svg version="1.1" id="Layer_1" xmlns="http://www.w3.org/2000/svg" xmlns:xlink="http://www.w3.org/1999/xlink" x="0px" y="0px"
	 width="183px" height="49px" viewBox="0 0 183 49" enable-background="new 0 0 183 49" xml:space="preserve">
<polygon fill="#4DBD91" points="78.707,29.891 78.707,44.611 75.296,44.611 75.296,38.615 69.528,38.615 69.528,44.611 
	66.117,44.611 66.117,29.891 69.528,29.891 69.528,35.617 75.296,35.617 75.296,29.891 "/>
<g>
	<path fill="#4DBD91" d="M89.56,44.984c-1.295,0-2.374-0.134-3.235-0.396c-0.861-0.262-1.55-0.665-2.067-1.209
		c-0.516-0.544-0.882-1.236-1.096-2.078c-0.214-0.839-0.32-1.839-0.32-2.997v-2.148c0-1.117,0.103-2.093,0.311-2.927
		c0.207-0.834,0.568-1.525,1.084-2.077c0.518-0.552,1.207-0.965,2.068-1.241c0.86-0.276,1.947-0.413,3.255-0.413
		c1.296,0,2.371,0.13,3.226,0.393c0.854,0.262,1.54,0.666,2.057,1.21c0.519,0.544,0.884,1.234,1.096,2.065
		c0.213,0.834,0.321,1.832,0.321,2.99v2.148c0,1.129-0.104,2.112-0.311,2.946c-0.207,0.833-0.565,1.525-1.075,2.077
		c-0.511,0.552-1.194,0.964-2.058,1.241C91.954,44.844,90.869,44.984,89.56,44.984 M89.56,42.128c0.648,0,1.176-0.048,1.583-0.144
		c0.405-0.098,0.726-0.287,0.959-0.568c0.234-0.282,0.396-0.675,0.486-1.179c0.089-0.504,0.134-1.161,0.134-1.974v-2.048
		c0-0.798-0.045-1.453-0.134-1.963c-0.09-0.509-0.252-0.902-0.486-1.178c-0.233-0.277-0.554-0.467-0.959-0.568
		c-0.407-0.105-0.935-0.154-1.583-0.154c-0.647,0-1.178,0.046-1.591,0.144c-0.413,0.095-0.737,0.285-0.972,0.568
		c-0.234,0.282-0.396,0.676-0.485,1.179s-0.134,1.16-0.134,1.973v2.048c0,0.799,0.044,1.45,0.134,1.953s0.251,0.896,0.485,1.18
		c0.234,0.281,0.559,0.475,0.972,0.578C88.382,42.076,88.913,42.128,89.56,42.128"/>
	<polygon fill="#4DBD91" points="103.804,29.891 103.804,41.737 110.729,41.737 110.171,44.611 100.392,44.611 100.392,29.891 	"/>
	<rect x="114.265" y="29.891" fill="#4DBD91" width="3.41" height="14.721"/>
	<path fill="#4DBD91" d="M122.14,29.891h6.079c1.267,0,2.321,0.136,3.162,0.403c0.842,0.269,1.51,0.672,2.005,1.209
		c0.499,0.537,0.844,1.21,1.046,2.016c0.198,0.806,0.299,1.755,0.299,2.842v1.759c0,1.061-0.101,1.994-0.299,2.8
		c-0.202,0.807-0.547,1.485-1.046,2.036c-0.495,0.552-1.157,0.966-1.984,1.242c-0.826,0.275-1.866,0.414-3.121,0.414h-6.141V29.891z
		 M125.49,41.757h2.459c0.606,0,1.116-0.053,1.529-0.154c0.413-0.104,0.749-0.29,1.004-0.559c0.254-0.269,0.437-0.642,0.546-1.116
		c0.111-0.476,0.166-1.086,0.166-1.829v-1.718c0-0.743-0.055-1.351-0.166-1.817c-0.109-0.469-0.292-0.839-0.546-1.105
		c-0.255-0.269-0.591-0.456-1.004-0.558c-0.413-0.105-0.923-0.158-1.529-0.158h-2.459V41.757z"/>
	<path fill="#4DBD91" d="M147.236,41.054h-5.292l-1.157,3.558h-3.433l5.314-14.721h4.01l5.334,14.721h-3.575L147.236,41.054z
		 M142.772,38.388h3.638l-1.839-5.478L142.772,38.388z"/>
	<polygon fill="#4DBD91" points="156.105,29.891 159.353,35.846 162.555,29.891 166.237,29.891 160.983,38.615 160.983,44.611 
		157.614,44.611 157.614,38.656 152.322,29.891 	"/>
	<path fill="#4DBD91" d="M176.056,35.927c0.716,0.124,1.316,0.297,1.799,0.518c0.481,0.221,0.867,0.498,1.156,0.837
		c0.291,0.338,0.495,0.738,0.621,1.199c0.124,0.463,0.187,0.997,0.187,1.603v0.311c0,0.743-0.097,1.383-0.29,1.912
		c-0.193,0.53-0.518,0.971-0.972,1.321c-0.455,0.353-1.055,0.611-1.799,0.776c-0.745,0.166-1.659,0.247-2.749,0.247h-0.992h-1.146
		c-0.422,0-0.898-0.004-1.428-0.011c-0.531-0.006-1.134-0.017-1.809-0.028l0.517-2.772c1.088,0.029,2.017,0.042,2.78,0.042h2.119
		c0.455,0,0.828-0.023,1.127-0.072c0.297-0.048,0.529-0.127,0.703-0.237c0.173-0.11,0.289-0.259,0.352-0.444
		c0.061-0.187,0.093-0.425,0.093-0.714c0-0.264-0.017-0.481-0.052-0.662c-0.034-0.179-0.11-0.327-0.228-0.444
		c-0.116-0.117-0.275-0.213-0.475-0.29c-0.2-0.073-0.465-0.141-0.797-0.195l-2.17-0.373c-0.801-0.136-1.454-0.313-1.963-0.526
		c-0.513-0.214-0.916-0.485-1.211-0.816c-0.297-0.331-0.5-0.725-0.61-1.179c-0.111-0.454-0.164-0.983-0.164-1.592v-0.332
		c0-0.659,0.096-1.245,0.289-1.756c0.192-0.51,0.51-0.944,0.95-1.302c0.44-0.358,1.016-0.631,1.726-0.815
		c0.711-0.188,1.575-0.28,2.596-0.28h1.095h1.147c0.407,0,0.849,0.004,1.322,0.011c0.477,0.009,1.016,0.018,1.624,0.03l-0.515,2.771
		c-1.078-0.028-1.99-0.041-2.743-0.041h-1.993c-0.414,0-0.758,0.025-1.033,0.071c-0.275,0.048-0.488,0.124-0.642,0.229
		c-0.151,0.104-0.259,0.242-0.319,0.424c-0.061,0.179-0.094,0.4-0.094,0.659c0,0.236,0.018,0.436,0.052,0.602
		c0.035,0.166,0.103,0.302,0.206,0.413c0.103,0.111,0.253,0.203,0.445,0.279s0.448,0.141,0.765,0.196L176.056,35.927z"/>
	<path fill="#0677BD" d="M78.848,21.682h-7.023l-1.537,4.719h-4.554l7.051-19.533h5.322l7.078,19.533h-4.747L78.848,21.682z
		 M72.922,18.144h4.829l-2.441-7.269L72.922,18.144z"/>
	<path fill="#0677BD" d="M87.05,6.868h8.969c2.05,0,3.544,0.403,4.485,1.208c0.941,0.806,1.413,2.021,1.413,3.648v0.303
		c0,2.011-0.806,3.355-2.413,4.032c0.932,0.311,1.658,0.831,2.18,1.563c0.521,0.731,0.781,1.701,0.781,2.908v0.494
		c0,1.884-0.571,3.25-1.713,4.101c-1.144,0.85-2.804,1.276-4.98,1.276H87.05V6.868z M91.302,10.326v4.251h3.813
		c0.896,0,1.528-0.165,1.894-0.494s0.548-0.851,0.548-1.564v-0.33c0-0.658-0.17-1.134-0.505-1.425
		c-0.342-0.293-0.922-0.439-1.745-0.439H91.302z M91.302,22.945h4.142c0.969,0,1.649-0.16,2.045-0.48
		c0.395-0.319,0.589-0.91,0.589-1.769v-0.357c0-0.878-0.205-1.485-0.617-1.824c-0.409-0.339-1.12-0.508-2.127-0.508h-4.031V22.945z"
		/>
	<path fill="#0677BD" d="M113.304,26.896c-1.72,0-3.152-0.176-4.295-0.522c-1.144-0.348-2.057-0.881-2.743-1.605
		c-0.686-0.723-1.171-1.642-1.453-2.757c-0.284-1.115-0.426-2.441-0.426-3.978v-2.853c0-1.481,0.137-2.774,0.412-3.882
		c0.274-1.106,0.755-2.025,1.44-2.756c0.685-0.732,1.601-1.28,2.742-1.646c1.144-0.365,2.583-0.548,4.322-0.548
		c1.719,0,3.144,0.174,4.277,0.521c1.135,0.348,2.045,0.883,2.731,1.605c0.685,0.723,1.169,1.637,1.451,2.743
		c0.285,1.108,0.429,2.428,0.429,3.965v2.853c0,1.499-0.139,2.803-0.414,3.91c-0.272,1.105-0.748,2.025-1.426,2.756
		c-0.677,0.732-1.586,1.28-2.728,1.647C116.479,26.711,115.039,26.896,113.304,26.896 M113.304,23.109
		c0.858,0,1.558-0.064,2.098-0.192c0.54-0.128,0.964-0.379,1.276-0.755c0.31-0.374,0.525-0.896,0.643-1.564
		c0.121-0.667,0.18-1.541,0.18-2.619v-2.717c0-1.061-0.059-1.929-0.18-2.605c-0.117-0.677-0.333-1.197-0.643-1.564
		c-0.313-0.366-0.736-0.617-1.276-0.754c-0.54-0.138-1.239-0.206-2.098-0.206c-0.86,0-1.564,0.064-2.113,0.192
		c-0.547,0.128-0.979,0.379-1.289,0.754c-0.311,0.375-0.527,0.896-0.646,1.564c-0.118,0.667-0.179,1.541-0.179,2.619v2.717
		c0,1.061,0.061,1.925,0.179,2.591c0.118,0.668,0.335,1.19,0.646,1.564c0.311,0.375,0.742,0.63,1.289,0.768
		C111.739,23.041,112.443,23.109,113.304,23.109"/>
	<path fill="#0677BD" d="M124.797,6.869h4.525v11.797c0,0.859,0.052,1.577,0.151,2.153c0.101,0.577,0.289,1.033,0.563,1.372
		c0.274,0.339,0.646,0.576,1.111,0.713c0.467,0.137,1.074,0.206,1.825,0.206c0.729,0,1.334-0.069,1.809-0.206
		c0.476-0.137,0.852-0.374,1.126-0.713c0.276-0.338,0.468-0.795,0.574-1.372c0.11-0.577,0.165-1.294,0.165-2.153V6.869h4.501v11.769
		c0,1.427-0.129,2.657-0.384,3.69c-0.258,1.033-0.7,1.889-1.332,2.564c-0.629,0.678-1.467,1.181-2.51,1.51s-2.36,0.495-3.949,0.495
		c-1.593,0-2.909-0.166-3.95-0.495c-1.045-0.329-1.882-0.832-2.511-1.51c-0.632-0.675-1.075-1.531-1.329-2.564
		c-0.258-1.033-0.386-2.263-0.386-3.69V6.869z"/>
	<polygon fill="#0677BD" points="147.869,6.869 156.536,19.241 156.536,6.869 160.815,6.869 160.815,26.401 157.084,26.401 
		148.498,14.139 148.498,26.401 144.192,26.401 144.192,6.869 	"/>
	<path fill="#0677BD" d="M163.998,6.869h8.065c1.681,0,3.08,0.178,4.197,0.535c1.115,0.357,2.002,0.892,2.66,1.605
		c0.658,0.713,1.12,1.605,1.385,2.674c0.267,1.07,0.398,2.329,0.398,3.772v2.331c0,1.409-0.132,2.647-0.398,3.718
		c-0.265,1.07-0.727,1.971-1.385,2.702c-0.658,0.731-1.535,1.281-2.634,1.646c-1.096,0.367-2.479,0.549-4.142,0.549h-8.147V6.869z
		 M168.441,22.616h3.266c0.802,0,1.48-0.07,2.028-0.207c0.549-0.138,0.993-0.384,1.33-0.74c0.339-0.357,0.581-0.851,0.729-1.482
		c0.146-0.631,0.219-1.441,0.219-2.428v-2.278c0-0.987-0.072-1.792-0.219-2.413c-0.147-0.623-0.39-1.111-0.729-1.468
		c-0.337-0.356-0.781-0.604-1.33-0.74c-0.548-0.138-1.227-0.207-2.028-0.207h-3.266V22.616z"/>
	<path fill="#0677BD" d="M45.202,7.378c-1.995,4.812-4.951,10.084-8.657,15.445c2.47,2.258,4.875,4.833,7.089,7.762
		c3.58-4.861,6.368-9.573,8.396-13.913c0.484-1.038,0.402-2.232-0.122-3.251c-1.241-2.41-2.887-4.605-4.872-6.477
		C46.455,6.395,45.509,6.639,45.202,7.378"/>
	<path fill="#4DBD91" d="M27.811,0.618c-5.95,0.711-11.412,3.649-15.284,8.151c1.585,0.53,3.744,1.329,6.258,2.465
		c3.104-3.63,6.306-6.855,9.485-9.612C28.708,1.243,28.385,0.549,27.811,0.618"/>
	<path fill="#4DBD91" d="M53.154,21.252c-2.062,3.901-4.625,7.941-7.649,11.974c1.312,1.957,2.529,4.061,3.623,6.312
		c2.198-2.665,3.844-5.848,4.729-9.423c0.723-2.906,0.877-5.825,0.538-8.632C54.316,20.835,53.458,20.676,53.154,21.252"/>
	<path fill="#0677BD" d="M21.661,12.606c0.617,0.318,1.252,0.651,1.902,1.001c1.842-3.28,3.82-6.281,5.893-8.965
		C26.887,6.942,24.269,9.6,21.661,12.606"/>
	<path fill="#4DBD91" d="M34.107,20.702c1.312-1.913,2.509-3.805,3.591-5.646c2.025-3.437,3.646-6.722,4.831-9.754
		c0.312-0.799-0.019-1.728-0.78-2.125c-1.085-0.566-2.227-1.054-3.418-1.453c-0.833-0.28-1.763-0.036-2.369,0.601
		c-3.351,3.517-6.604,7.928-9.46,12.981C28.98,16.815,31.56,18.603,34.107,20.702"/>
	<path fill="#4DBD91" d="M33.09,48.146c1.361-0.14,2.696-0.394,3.996-0.758c3.688-1.033,5.588-5.123,4.033-8.623l-0.025-0.06
		c-2.705,3.139-5.526,6.014-8.38,8.556C32.348,47.586,32.603,48.197,33.09,48.146"/>
	<path fill="#0677BD" d="M39.639,35.685c-1.618-3.132-3.553-6.166-5.827-9.063c-0.699,0.923-1.416,1.848-2.148,2.771
		c-4.063,5.105-8.558,9.89-13.089,13.793c-0.609,0.524-0.554,1.498,0.143,1.899c1.891,1.086,3.961,1.931,6.18,2.482
		c0.267,0.068,0.532,0.127,0.797,0.183c0.83,0.174,1.695-0.011,2.354-0.546C31.984,44.013,35.928,40.102,39.639,35.685"/>
	<path fill="#0677BD" d="M22.491,15.585c-0.677-0.514-1.371-1.017-2.083-1.508c-0.492,0.59-0.99,1.202-1.481,1.819
		c-4.3,5.406-7.64,10.686-10.057,15.55c-0.404,0.813-0.445,1.769-0.077,2.598c0.97,2.182,2.261,4.212,3.828,6.017
		c0.541,0.622,1.55,0.33,1.677-0.486c0.955-6.096,2.938-12.751,5.99-19.484C20.989,18.542,21.727,17.041,22.491,15.585"/>
	<path fill="#4DBD91" d="M29.155,27.393c0.879-1.104,1.732-2.209,2.542-3.313c-1.952-2.218-4.118-4.34-6.505-6.345
		c-0.634,1.219-1.241,2.47-1.821,3.749c-2.814,6.203-4.673,12.446-5.602,18.17C21.491,36.293,25.351,32.169,29.155,27.393"/>
	<path fill="#4DBD91" d="M17.829,12.372c-1.782-1.126-3.663-2.198-5.636-3.208c-2.208,2.667-3.865,5.86-4.75,9.446
		c-0.647,2.619-0.835,5.246-0.617,7.792c0.051,0.604,0.836,0.783,1.132,0.256c2.322-4.152,5.19-8.434,8.564-12.672
		C16.955,13.438,17.391,12.901,17.829,12.372"/>
	<path fill="#0677BD" d="M1.52,3.164C1.23,3.667,2.144,4.353,2.203,4.397C2.205,4.399,2.207,4.4,2.21,4.402l1.455,0.802
		C3.685,5.214,3.698,5.232,3.7,5.252l0.399,4.09c0.022,0.233,0.186,0.429,0.413,0.49L4.608,9.86
		c0.034,0.009,0.069-0.009,0.078-0.044l0.972-3.488c0.01-0.038,0.053-0.057,0.088-0.04l2.072,1.002
		C7.838,7.301,7.852,7.32,7.853,7.343l0.098,1.798c0.001,0.023,0.014,0.042,0.034,0.054l0.389,0.208
		c0.037,0.019,0.084-0.003,0.092-0.044l0.372-1.956c0.003-0.014,0.009-0.027,0.02-0.037l1.506-1.301
		c0.033-0.028,0.029-0.079-0.008-0.102L9.98,5.729C9.962,5.717,9.938,5.716,9.919,5.726L8.314,6.544
		C8.294,6.554,8.269,6.552,8.25,6.539L6.344,5.25c-0.034-0.021-0.039-0.068-0.01-0.097l2.532-2.59c0.025-0.025,0.025-0.065,0-0.089
		l-0.072-0.07c-0.168-0.165-0.419-0.208-0.632-0.11L4.423,3.997C4.404,4.005,4.382,4.004,4.364,3.994L2.945,3.138
		C2.942,3.136,2.94,3.135,2.938,3.133C2.866,3.104,1.809,2.663,1.52,3.164"/>
	<path fill="#4DBD91" d="M45.51,33.243c0,0,7.009,11.082-2.336,15.757c0,0,7.969-1.738,6.291-10.364
		c0-0.627-0.499-1.843-1.857-3.535C46.813,34.107,46.077,33.514,45.51,33.243"/>
	<polygon fill="#4DBD91" points="12.193,9.163 9.444,7.811 12.365,11.045 	"/>
</g>
</svg>
