<?xml version="1.0" encoding="UTF-8"?>
<svg xmlns="http://www.w3.org/2000/svg" width="240" height="79" viewBox="0 0 240 79" fill="none">
  <ellipse cx="33.4432" cy="30.2923" rx="18.4666" ry="18.3651" fill="#F7841E"></ellipse>
  <path d="M2.84129 71.2714L2.8398 71.2728C2.09666 71.9861 1.52833 72.975 1.23314 73.9057C1.08445 74.3746 0.991398 74.8709 1.00063 75.3447C1.00963 75.8067 1.11947 76.3501 1.48727 76.79C1.88713 77.2682 2.46041 77.4695 3.0634 77.4522C3.63009 77.4359 4.24244 77.2315 4.8849 76.9013C6.17446 76.2385 7.87939 74.9135 10.1027 72.7035C14.2425 68.5883 21.2705 66.7175 28.2598 66.0662C35.204 65.419 41.8582 65.9971 44.999 66.5647C48.4248 67.1839 52.4147 66.7166 55.8479 65.5032C59.2476 64.3015 62.3236 62.2862 63.6665 59.6164C64.3357 58.2858 64.4882 57.0952 64.1256 56.001C63.7792 54.9557 63.0141 54.1696 62.2454 53.5201C61.8565 53.1915 61.4332 52.8713 61.0226 52.5607L61.0165 52.5561C60.5966 52.2384 60.1843 51.9265 59.7834 51.593C58.983 50.927 58.2771 50.2139 57.7746 49.3398C57.3835 48.6594 57.0633 48.123 56.8114 47.7011C56.6869 47.4924 56.579 47.3118 56.4876 47.1557C56.2024 46.6684 56.0558 46.3841 55.9405 46.0692C55.8216 45.7441 55.7237 45.352 55.578 44.637C55.5099 44.3028 55.4378 43.9317 55.3514 43.4871C55.2465 42.9473 55.1205 42.2994 54.9553 41.4781C54.4093 38.7641 54.9902 37.1934 55.566 36.4649C55.792 36.179 56.0044 36.0339 56.1471 35.9678C56.8335 37.2592 57.6053 38.1627 58.5341 39.0689C58.9344 39.4595 59.3712 39.8574 59.8365 40.2813C59.9329 40.3692 60.0306 40.4582 60.1294 40.5484C60.7106 41.0792 61.3497 41.6705 62.0681 42.3846C63.3251 43.6341 63.8605 45.1487 64.2884 47.1336C64.4001 47.6518 64.5049 48.2081 64.6158 48.7966C64.9197 50.4097 65.2692 52.2644 65.9308 54.2375C66.8652 57.0242 68.3163 58.8697 70.0651 59.8258C71.8247 60.7879 73.7528 60.7751 75.46 60.0963C75.9234 59.912 76.3511 59.6497 76.6501 59.2571C76.9694 58.838 77.0739 58.36 77.03 57.8974C76.9891 57.4664 76.8229 57.0682 76.6383 56.7302C76.4502 56.3856 76.2086 56.0427 75.9564 55.7149C75.703 55.3855 75.4192 55.0463 75.1398 54.7141L75.0653 54.6256C74.8067 54.3183 74.5512 54.0147 74.3054 53.7063C73.7587 53.0203 73.3221 52.385 73.0855 51.7971C72.6574 50.7333 72.8135 49.6093 73.687 48.0731C74.5797 46.503 76.1181 44.6869 78.1873 42.3361C80.3103 39.9242 81.9726 37.219 83.1068 34.8137C84.2216 32.4497 84.8887 30.2433 84.8887 28.8482C84.8887 27.7611 84.4584 25.7428 83.8991 23.7269C83.6998 23.0083 83.4781 22.2693 83.2434 21.5466L83.8065 22.013C84.2036 22.3936 85.1929 23.1422 86.4542 23.982C87.7833 24.8669 89.49 25.9031 91.296 26.8008C92.8963 27.5961 94.4092 28.9472 96.1684 30.6959C96.583 31.1081 97.0107 31.5416 97.454 31.9911C98.8583 33.4148 100.421 34.9986 102.229 36.5717C104.233 38.3151 107.233 39.8297 109.974 40.902C111.355 41.4426 112.698 41.8812 113.854 42.1861C114.986 42.4848 116.014 42.6754 116.735 42.6754H117.515L117.705 41.9193C117.854 41.3271 117.85 40.4474 117.39 39.6164C116.906 38.7438 115.995 38.0598 114.584 37.7793C114.537 37.77 114.394 37.7242 114.129 37.5891C113.878 37.4616 113.569 37.2803 113.203 37.0453C112.472 36.5756 111.564 35.9223 110.534 35.1331C108.477 33.5567 105.983 31.4766 103.537 29.3347C101.091 27.1936 98.7031 25.0012 96.8581 23.2033C95.9349 22.3036 95.1548 21.5098 94.5736 20.8747C93.9579 20.2018 93.6542 19.8002 93.5802 19.653C93.3842 19.2634 93.035 18.7761 92.6235 18.2557C92.1989 17.7186 91.6624 17.0899 91.0505 16.4033C89.8259 15.0292 88.2738 13.3948 86.6545 11.7485C83.4244 8.46461 79.8755 5.08161 78.0746 3.58975C76.2204 2.05373 74.4272 1.20592 72.7751 1.03305C71.0905 0.856782 69.6182 1.39295 68.5201 2.48452C67.9409 3.06025 67.5134 3.86023 67.1687 4.66936C66.8181 5.49209 66.5119 6.42728 66.2203 7.3331C66.1957 7.40945 66.1712 7.48561 66.1468 7.56155C65.8761 8.40365 65.6142 9.21871 65.3239 9.96418C65.0054 10.7819 64.6784 11.4467 64.321 11.9203C63.9026 12.4749 63.3366 13.1437 62.6633 13.9322C62.5995 14.0069 62.5348 14.0827 62.4692 14.1594C61.8512 14.8827 61.1619 15.6893 60.4573 16.5565C58.9012 18.4716 57.2355 20.7235 56.0143 23.1513C54.9407 25.2858 52.5879 27.6537 50.1913 29.6029C49.0089 30.5646 47.8466 31.3997 46.8787 32.0264C45.8794 32.6734 45.1681 33.0451 44.8623 33.1464C44.518 33.2605 44.1962 33.1712 43.1776 32.4702C43.0963 32.4143 43.0123 32.3559 42.9254 32.2955C42.017 31.6641 40.79 30.8112 39.0394 30.2311C38.1414 29.9336 37.3664 29.725 36.7028 29.6493C36.0365 29.5733 35.3785 29.6186 34.7955 29.9406C34.2023 30.2682 33.8427 30.7953 33.5999 31.3584C33.3631 31.9078 33.2003 32.5792 33.0521 33.3154C32.9287 33.9287 32.5289 35.0452 31.8802 36.5164C31.2422 37.9635 30.3933 39.6879 29.4146 41.4896C27.4492 45.1074 24.9996 48.9648 22.7293 51.5038C19.0076 55.6658 7.93603 66.4017 2.84129 71.2714Z" fill="#078CBF" stroke="white" stroke-width="2"></path>
  <mask id="path-3-outside-1_176_141" maskUnits="userSpaceOnUse" x="70.0034" y="18.469" width="170" height="45" fill="black">
    <rect fill="white" x="70.0034" y="18.469" width="170" height="45"></rect>
    <path d="M77.0002 47.744L76.7926 44.3371C78.592 44.3371 80.1146 44.1994 81.3603 43.9241C82.6407 43.6488 83.6442 43.167 84.3709 42.4787C85.1321 41.756 85.6858 40.758 86.0319 39.4847C86.3779 38.2114 86.5509 36.5595 86.5509 34.5291C86.5509 32.4298 86.3606 30.778 85.9799 29.5735C85.5993 28.3346 84.9591 27.4398 84.0594 26.8892C83.1943 26.3386 82.0351 26.0633 80.5817 26.0633C79.855 26.0633 79.0591 26.1149 78.194 26.2181C77.3635 26.2869 76.4292 26.4074 75.3911 26.5795L73.0034 21.7787C74.2146 21.6755 75.4084 21.6067 76.5849 21.5722C77.7615 21.5034 78.8342 21.469 79.8031 21.469C82.8137 21.469 85.2533 21.8303 87.1219 22.553C88.9905 23.2757 90.3574 24.5835 91.2225 26.4762C92.0876 28.3346 92.5201 30.9672 92.5201 34.3742C92.5201 36.8176 92.1395 38.8997 91.3782 40.6204C90.6169 42.3066 89.5269 43.6832 88.1081 44.75C86.7239 45.7824 85.0802 46.5396 83.177 47.0213C81.3084 47.5031 79.2495 47.744 77.0002 47.744ZM79.9069 59.1006C79.2841 59.1006 78.5747 59.0834 77.7788 59.049C77.0175 59.049 76.2389 59.0146 75.443 58.9458C74.6471 58.9114 73.8512 58.8769 73.0553 58.8425L75.8063 54.2999C76.8791 54.4031 77.9172 54.5064 78.9207 54.6096C79.9242 54.6784 80.8585 54.7129 81.7236 54.7129C82.658 54.7129 83.5058 54.644 84.267 54.5064C85.0629 54.3687 85.7031 54.0934 86.1876 53.6804C86.672 53.2331 86.9143 52.562 86.9143 51.6672C86.9143 50.9101 86.7066 50.3251 86.2914 49.9121C85.8761 49.4647 85.2533 49.155 84.4228 48.9829C83.6269 48.8109 82.5887 48.7248 81.3084 48.7248C80.9624 48.7248 80.5298 48.742 80.0107 48.7765C79.5263 48.7765 79.0072 48.7765 78.4536 48.7765C77.9345 48.7765 77.45 48.7937 77.0002 48.8281L76.7926 44.3371C80.8412 44.3026 84.0248 44.5952 86.3433 45.2146C88.6964 45.8341 90.3747 46.7116 91.3782 47.8473C92.3817 48.9829 92.8835 50.3423 92.8835 51.9253C92.8835 53.8181 92.3644 55.2979 91.3263 56.3647C90.2882 57.3971 88.8002 58.1198 86.8624 58.5328C84.9245 58.9114 82.6061 59.1006 79.9069 59.1006ZM73.0553 58.8425C73.0553 58.8425 73.0553 58.3263 73.0553 57.2939C73.0899 56.2271 73.1245 54.8161 73.1591 53.061C73.1937 51.3059 73.211 49.3615 73.211 47.2278C73.2456 45.0597 73.2629 42.8917 73.2629 40.7236C73.2629 38.5211 73.2456 36.3186 73.211 34.1161C73.211 31.8792 73.1764 29.8316 73.1072 27.9732C73.0726 26.0805 73.038 24.5835 73.0034 23.4822C73.0034 22.3465 73.0034 21.7787 73.0034 21.7787L79.2841 22.2433C79.2841 22.2433 79.2668 22.6907 79.2322 23.5855C79.2322 24.4458 79.2149 25.5987 79.1802 27.0441C79.1802 28.455 79.1629 30.0037 79.1283 31.6899C79.0937 33.3418 79.0591 34.9593 79.0245 36.5423C79.0245 38.1253 79.0245 39.5191 79.0245 40.7236C79.0245 41.9281 79.0245 43.3046 79.0245 44.8533C79.0591 46.4019 79.0764 47.9677 79.0764 49.5508C79.111 51.1338 79.1283 52.5964 79.1283 53.9385C79.1629 55.2807 79.1802 56.3647 79.1802 57.1907C79.2149 58.0166 79.2322 58.4296 79.2322 58.4296L73.0553 58.8425Z"></path>
    <path d="M102.976 59.1006C100.83 59.1006 99.1691 58.5328 97.9926 57.3971C96.816 56.2271 95.9855 54.6784 95.5011 52.7513C95.1896 51.5468 94.9647 50.2218 94.8263 48.7765C94.7225 47.2967 94.6706 45.748 94.6706 44.1306C94.6706 43.0293 94.7052 41.9969 94.7744 41.0333C94.8436 40.0353 94.9647 39.1061 95.1377 38.2458C95.3107 37.351 95.5357 36.5251 95.8125 35.768C96.4354 33.9785 97.387 32.5675 98.6673 31.5351C99.9823 30.5027 101.695 29.9864 103.806 29.9864C105.848 29.9864 107.439 30.5543 108.581 31.6899C109.723 32.7912 110.554 34.2882 111.073 36.181C111.384 37.2822 111.592 38.5211 111.696 39.8977C111.834 41.2742 111.903 42.7368 111.903 44.2854C111.903 45.9029 111.834 47.4343 111.696 48.8797C111.592 50.3251 111.384 51.6156 111.073 52.7513C110.727 54.0934 110.208 55.2463 109.516 56.2099C108.824 57.139 107.941 57.8617 106.869 58.3779C105.83 58.8597 104.533 59.1006 102.976 59.1006ZM103.339 54.6612C104.204 54.6612 104.844 54.3343 105.259 53.6804C105.675 53.0266 105.952 52.1318 106.09 50.9962C106.194 50.4455 106.246 49.8605 106.246 49.241C106.28 48.5872 106.298 47.8989 106.298 47.1762C106.298 46.4535 106.298 45.6792 106.298 44.8533C106.298 43.5111 106.28 42.2894 106.246 41.1882C106.211 40.0525 106.125 39.0373 105.986 38.1425C105.813 36.9036 105.519 35.9573 105.104 35.3034C104.723 34.6151 104.135 34.271 103.339 34.271C102.854 34.271 102.422 34.4086 102.041 34.6839C101.695 34.9593 101.401 35.3722 101.159 35.9228C100.951 36.4391 100.778 37.0413 100.64 37.7296C100.536 38.349 100.449 39.0373 100.38 39.7944C100.346 40.5171 100.311 41.2914 100.276 42.1174C100.276 42.9433 100.276 43.8036 100.276 44.6984C100.276 45.4899 100.276 46.2642 100.276 47.0213C100.276 47.744 100.294 48.4151 100.328 49.0346C100.398 49.654 100.467 50.2563 100.536 50.8413C100.709 52.0114 101.003 52.9405 101.418 53.6288C101.868 54.3171 102.508 54.6612 103.339 54.6612Z"></path>
    <path d="M120.53 59.1006C119.181 59.1006 118.108 58.8081 117.312 58.2231C116.516 57.6036 115.945 56.7089 115.599 55.5388C115.253 54.3343 115.08 52.8889 115.08 51.2026C115.08 50.5832 115.08 49.7745 115.08 48.7765C115.115 47.744 115.115 46.6084 115.08 45.3695C115.08 44.0962 115.08 42.7712 115.08 41.3947C115.08 40.0181 115.063 38.6588 115.028 37.3166C115.028 35.9745 115.028 34.7184 115.028 33.5483C115.028 32.3438 115.028 31.3114 115.028 30.451L120.582 29.7283C120.548 30.864 120.496 32.1889 120.427 33.7032C120.392 35.2174 120.357 36.8004 120.323 38.4523C120.288 40.0697 120.254 41.6528 120.219 43.2014C120.184 44.75 120.15 46.161 120.115 47.4343C120.115 48.7076 120.115 49.7573 120.115 50.5832C120.115 51.4779 120.167 52.2523 120.271 52.9061C120.375 53.56 120.548 54.059 120.79 54.4031C121.067 54.7473 121.465 54.9193 121.984 54.9193C122.745 54.9193 123.437 54.5064 124.06 53.6804C124.717 52.8201 125.237 51.5296 125.617 49.8089C126.032 48.0882 126.24 45.8857 126.24 43.2014C126.24 42.3066 126.223 41.3775 126.188 40.4139C126.188 39.4503 126.171 38.4695 126.136 37.4715C126.136 36.4391 126.136 35.4066 126.136 34.3742C126.136 33.3074 126.136 32.2406 126.136 31.1737L131.898 31.277C131.829 33.2041 131.759 34.9765 131.69 36.5939C131.656 38.2114 131.621 39.8116 131.586 41.3947C131.552 42.9777 131.517 44.6468 131.483 46.4019C131.483 48.157 131.483 50.1358 131.483 52.3383C131.483 53.1986 131.517 53.9558 131.586 54.6096C131.69 55.2635 131.829 55.8313 132.002 56.3131C132.175 56.7949 132.4 57.2767 132.676 57.7585L128.161 59.1006C127.78 58.6533 127.468 58.0854 127.226 57.3971C126.984 56.6745 126.794 55.7797 126.655 54.7129C125.998 56.055 125.167 57.1218 124.164 57.9134C123.195 58.7049 121.984 59.1006 120.53 59.1006Z"></path>
    <path d="M152.21 59.1523L146.292 59.7201C146.327 58.8942 146.362 57.9994 146.396 57.0358C146.431 56.0378 146.465 54.971 146.5 53.8353C146.535 52.6996 146.552 51.4779 146.552 50.1702C146.587 48.8625 146.604 47.4515 146.604 45.9373C146.604 45.2146 146.604 44.4403 146.604 43.6144C146.604 42.7884 146.604 41.9281 146.604 41.0333C146.604 40.1386 146.604 39.2094 146.604 38.2458C146.604 37.3854 146.535 36.68 146.396 36.1293C146.292 35.5443 146.102 35.0969 145.825 34.7872C145.548 34.4775 145.168 34.3226 144.683 34.3226C144.13 34.3226 143.559 34.5635 142.97 35.0453C142.417 35.5271 141.95 36.4219 141.569 37.7296C141.188 39.0029 140.998 40.8785 140.998 43.3563L138.87 45.8341C138.87 44.0101 138.939 42.3066 139.077 40.7236C139.216 39.1061 139.441 37.6263 139.752 36.2842C140.098 34.9421 140.548 33.8064 141.102 32.8772C141.69 31.9136 142.399 31.1737 143.23 30.6575C144.06 30.1413 145.047 29.8832 146.189 29.8832C147.296 29.8832 148.282 30.1241 149.147 30.6059C150.047 31.0533 150.756 31.862 151.275 33.0321C151.794 34.2022 152.054 35.854 152.054 37.9877C152.054 38.8824 152.054 39.674 152.054 40.3622C152.054 41.0505 152.054 41.6872 152.054 42.2722C152.054 42.8228 152.054 43.3735 152.054 43.9241C152.054 44.4747 152.054 45.0598 152.054 45.6792C152.054 47.2622 152.054 48.6904 152.054 49.9637C152.089 51.2371 152.106 52.4071 152.106 53.474C152.141 54.5064 152.158 55.4872 152.158 56.4164C152.192 57.3455 152.21 58.2575 152.21 59.1523ZM135.133 58.5328C135.167 57.6381 135.202 56.7261 135.236 55.7969C135.271 54.8677 135.306 53.8697 135.34 52.8029C135.409 51.7016 135.444 50.4799 135.444 49.1378C135.479 47.7957 135.496 46.247 135.496 44.4919C135.531 42.1518 135.531 40.0697 135.496 38.2458C135.461 36.3874 135.427 34.8388 135.392 33.5999C135.392 32.3266 135.392 31.4318 135.392 30.9156L140.323 30.7608C140.358 31.1737 140.392 31.776 140.427 32.5675C140.462 33.3246 140.514 34.2538 140.583 35.355C140.652 36.4219 140.704 37.6263 140.738 38.9685C140.808 40.3106 140.894 41.7732 140.998 43.3563C140.998 45.5932 141.015 47.6408 141.05 49.4991C141.085 51.3231 141.119 52.975 141.154 54.4548C141.188 55.9346 141.206 57.2939 141.206 58.5328H135.133Z"></path>
    <path d="M155.32 44.75C155.32 43.2702 155.372 41.842 155.476 40.4655C155.614 39.0545 155.839 37.7468 156.151 36.5423C156.635 34.6151 157.396 33.0665 158.434 31.8964C159.507 30.6919 160.978 30.0897 162.846 30.0897C163.573 30.0897 164.196 30.1929 164.715 30.3994C165.269 30.5715 165.736 30.8296 166.117 31.1737C166.532 31.5179 166.878 31.9136 167.155 32.361C167.155 31.7071 167.137 30.9845 167.103 30.1929C167.103 29.367 167.103 28.5239 167.103 27.6635C167.103 26.7687 167.085 25.9256 167.051 25.1341C167.051 24.3081 167.051 23.551 167.051 22.8628L172.812 22.7079C172.743 25.1857 172.674 27.5086 172.605 29.6767C172.536 31.8104 172.501 33.8064 172.501 35.6647C172.501 37.5231 172.484 39.2954 172.449 40.9817C172.449 42.1862 172.449 43.3907 172.449 44.5952C172.449 45.7996 172.449 47.0041 172.449 48.2086C172.484 49.4131 172.501 50.6176 172.501 51.8221C172.536 52.9922 172.57 54.145 172.605 55.2807C172.639 56.3819 172.674 57.4832 172.709 58.5844L167.57 58.6361L167.414 55.3839C167.068 56.1066 166.636 56.7605 166.117 57.3455C165.597 57.8961 165.009 58.3263 164.352 58.6361C163.729 58.9458 163.002 59.1006 162.172 59.1006C160.995 59.1006 159.992 58.8769 159.161 58.4296C158.365 57.9822 157.708 57.3627 157.189 56.5712C156.704 55.7453 156.324 54.7989 156.047 53.7321C155.735 52.4932 155.528 51.1166 155.424 49.6024C155.355 48.0538 155.32 46.4363 155.32 44.75ZM160.874 44.75C160.874 45.8513 160.874 46.9181 160.874 47.9505C160.874 48.9485 160.926 49.8605 161.03 50.6864C161.134 51.9253 161.358 52.9061 161.704 53.6288C162.085 54.3171 162.708 54.6612 163.573 54.6612C164.334 54.6612 164.957 54.2655 165.442 53.474C165.926 52.6824 166.272 51.6844 166.48 50.4799C166.618 49.8605 166.722 49.2066 166.791 48.5184C166.861 47.7957 166.912 47.073 166.947 46.3503C166.982 45.6276 166.999 44.9221 166.999 44.2338C166.999 43.167 166.964 42.1346 166.895 41.1366C166.86 40.1041 166.791 39.1406 166.687 38.2458C166.514 37.0413 166.22 36.0605 165.805 35.3034C165.39 34.5119 164.784 34.1161 163.988 34.1161C163.469 34.1161 163.019 34.2882 162.639 34.6323C162.293 34.9765 161.999 35.4583 161.756 36.0777C161.549 36.6627 161.376 37.351 161.237 38.1425C161.099 39.1061 160.995 40.1558 160.926 41.2914C160.891 42.4271 160.874 43.58 160.874 44.75Z"></path>
    <path d="M175.735 58.5328C175.769 57.8445 175.786 57.0014 175.786 56.0034C175.821 54.971 175.856 53.8009 175.89 52.4932C175.925 51.1854 175.959 49.74 175.994 48.157C176.029 46.574 176.046 44.8533 176.046 42.9949C176.046 41.3775 176.029 39.674 175.994 37.8844C175.994 36.0605 175.977 34.2538 175.942 32.4642C175.908 30.6747 175.873 29.0056 175.838 27.457C175.838 25.874 175.838 24.5146 175.838 23.379L181.652 22.966C181.617 24.2049 181.583 25.4954 181.548 26.8376C181.513 28.1453 181.479 29.4874 181.444 30.864C181.444 32.2406 181.427 33.6343 181.392 35.0453C181.358 36.4219 181.34 37.7812 181.34 39.1233C181.34 40.4655 181.34 41.756 181.34 42.9949C181.34 44.8189 181.358 46.7116 181.392 48.6732C181.427 50.6004 181.462 52.4415 181.496 54.1967C181.531 55.9173 181.565 57.3627 181.6 58.5328H175.735Z"></path>
    <path d="M193.236 59.2039C191.16 59.2039 189.499 58.6877 188.253 57.6553C187.042 56.6228 186.142 55.2291 185.554 53.474C185.138 52.2351 184.844 50.8585 184.671 49.3443C184.498 47.7957 184.412 46.161 184.412 44.4403C184.412 42.9949 184.481 41.6184 184.619 40.3106C184.758 39.0029 185 37.8156 185.346 36.7488C185.934 34.7528 186.869 33.1525 188.149 31.948C189.464 30.7436 191.281 30.1413 193.599 30.1413C195.537 30.1413 197.06 30.5371 198.167 31.3286C199.274 32.1201 200.07 33.2386 200.555 34.6839C201.039 36.1293 201.281 37.85 201.281 39.846C201.281 40.7752 201.229 41.7732 201.126 42.8401C201.056 43.8725 200.953 44.9393 200.814 46.0405L195.572 42.4271C195.641 41.7732 195.693 41.1538 195.727 40.5687C195.762 39.9837 195.779 39.4159 195.779 38.8652C195.779 37.9361 195.71 37.1273 195.572 36.4391C195.433 35.7508 195.174 35.2174 194.793 34.8388C194.447 34.4258 193.928 34.2194 193.236 34.2194C192.336 34.2194 191.661 34.5979 191.212 35.355C190.796 36.1121 190.502 37.1445 190.329 38.4523C190.225 39.2094 190.156 40.0697 190.121 41.0333C190.087 41.9625 190.07 42.9433 190.07 43.9757C190.07 44.9049 190.07 45.8169 190.07 46.7116C190.07 47.572 190.087 48.3807 190.121 49.1378C190.191 49.8949 190.26 50.5832 190.329 51.2026C190.537 52.3383 190.865 53.2503 191.315 53.9385C191.765 54.5924 192.457 54.9193 193.392 54.9193C194.049 54.9193 194.568 54.7817 194.949 54.5064C195.329 54.1966 195.606 53.7837 195.779 53.2675C195.952 52.7513 196.039 52.1834 196.039 51.564C196.039 51.2198 196.004 50.8585 195.935 50.4799C195.9 50.067 195.848 49.6712 195.779 49.2927H201.177C201.247 49.6712 201.281 50.0498 201.281 50.4283C201.316 50.7725 201.333 51.1166 201.333 51.4607C201.333 53.0438 201.022 54.4203 200.399 55.5904C199.811 56.7605 198.911 57.6553 197.7 58.2747C196.523 58.8942 195.035 59.2039 193.236 59.2039ZM186.125 46.4019L186.021 42.0141L199.88 41.9109L200.814 46.0405C200.814 46.0405 200.468 46.0405 199.776 46.0405C199.119 46.0405 198.253 46.0578 197.181 46.0922C196.108 46.0922 194.914 46.1094 193.599 46.1438C192.319 46.1782 191.021 46.2126 189.706 46.247C188.391 46.2814 187.197 46.3331 186.125 46.4019Z"></path>
    <path d="M210.872 59.1006C209.176 59.1006 207.74 58.8253 206.564 58.2747C205.422 57.6897 204.539 56.8809 203.916 55.8485C203.328 54.7817 203.034 53.56 203.034 52.1834C203.034 51.8393 203.051 51.4952 203.086 51.151C203.12 50.7725 203.172 50.4111 203.242 50.067L208.64 50.0154C208.605 50.3595 208.571 50.6864 208.536 50.9962C208.501 51.2715 208.484 51.564 208.484 51.8737C208.484 52.4243 208.553 52.9405 208.692 53.4223C208.865 53.8697 209.142 54.2311 209.522 54.5064C209.937 54.7473 210.491 54.8677 211.183 54.8677C211.737 54.8677 212.204 54.7473 212.585 54.5064C212.965 54.2655 213.259 53.9385 213.467 53.5256C213.675 53.0782 213.778 52.562 213.778 51.977C213.778 51.2198 213.571 50.6004 213.156 50.1186C212.74 49.6024 212.187 49.1206 211.495 48.6732C210.803 48.2258 210.007 47.7096 209.107 47.1246C208.242 46.574 207.429 46.0061 206.667 45.4211C205.941 44.8361 205.301 44.1994 204.747 43.5111C204.193 42.7884 203.761 41.9797 203.449 41.0849C203.138 40.1558 202.982 39.0889 202.982 37.8844C202.982 36.1293 203.345 34.6495 204.072 33.445C204.833 32.2061 205.854 31.277 207.135 30.6575C208.415 30.0381 209.834 29.7283 211.391 29.7283C213.259 29.7283 214.765 30.0897 215.907 30.8124C217.049 31.5007 217.879 32.4815 218.398 33.7548C218.952 35.0281 219.229 36.5423 219.229 38.2974C219.229 38.5727 219.211 38.8825 219.177 39.2266C219.177 39.5707 219.159 39.9149 219.125 40.259C219.09 40.5687 219.056 40.9129 219.021 41.2914H213.415C213.484 40.672 213.554 40.0869 213.623 39.5363C213.692 38.9857 213.727 38.4523 213.727 37.9361C213.727 36.766 213.536 35.8196 213.156 35.0969C212.81 34.3398 212.169 33.9613 211.235 33.9613C210.716 33.9613 210.249 34.0989 209.834 34.3742C209.418 34.6151 209.09 34.9937 208.847 35.5099C208.64 36.0261 208.536 36.68 208.536 37.4715C208.536 38.4007 208.674 39.1578 208.951 39.7428C209.228 40.3278 209.609 40.844 210.093 41.2914C210.612 41.7044 211.201 42.1346 211.858 42.5819C212.827 43.167 213.761 43.752 214.661 44.3371C215.561 44.9221 216.357 45.5415 217.049 46.1954C217.775 46.8493 218.346 47.6064 218.761 48.4667C219.177 49.2927 219.384 50.3079 219.384 51.5124C219.384 53.1298 219.021 54.5064 218.294 55.642C217.602 56.7433 216.616 57.6036 215.336 58.2231C214.09 58.8081 212.602 59.1006 210.872 59.1006Z"></path>
    <path d="M228.539 58.8942C227.224 58.8942 226.065 58.7393 225.062 58.4296C224.058 58.0854 223.228 57.6208 222.57 57.0358C221.947 56.4164 221.463 55.6765 221.117 54.8161C220.805 53.9213 220.65 52.9233 220.65 51.8221C220.65 51.4091 220.667 50.9789 220.701 50.5316C220.771 50.0842 220.857 49.6196 220.961 49.1378L226.359 49.0862C226.29 49.5336 226.221 49.9637 226.152 50.3767C226.117 50.7897 226.1 51.1682 226.1 51.5124C226.1 52.5792 226.29 53.3707 226.671 53.8869C227.051 54.4031 227.726 54.6612 228.695 54.6612C229.318 54.6612 229.82 54.5408 230.2 54.2999C230.616 54.0246 230.91 53.646 231.083 53.1642C231.29 52.6824 231.394 52.149 231.394 51.564C231.394 50.7036 231.187 50.0154 230.771 49.4991C230.356 48.9485 229.785 48.4667 229.058 48.0538C228.366 47.6064 227.553 47.1246 226.619 46.6084C225.754 46.0922 224.94 45.5588 224.179 45.0081C223.452 44.4231 222.812 43.8036 222.259 43.1498C221.74 42.4615 221.324 41.67 221.013 40.7752C220.736 39.8805 220.598 38.848 220.598 37.678C220.598 36.0261 220.961 34.6495 221.688 33.5483C222.449 32.4126 223.47 31.5523 224.75 30.9672C226.031 30.3822 227.449 30.0897 229.006 30.0897C230.84 30.0897 232.328 30.3994 233.47 31.0189C234.612 31.6383 235.46 32.4987 236.014 33.5999C236.567 34.6667 236.844 35.9228 236.844 37.3682C236.844 37.5747 236.827 37.8156 236.792 38.0909C236.792 38.3318 236.775 38.5899 236.74 38.8652C236.706 39.1061 236.671 39.3642 236.637 39.6396H231.031C231.135 39.2954 231.204 38.9513 231.238 38.6071C231.273 38.2286 231.29 37.8672 231.29 37.5231C231.29 36.6628 231.1 35.9228 230.719 35.3034C230.373 34.6495 229.75 34.3226 228.851 34.3226C228.297 34.3226 227.813 34.443 227.397 34.6839C227.017 34.9248 226.705 35.269 226.463 35.7164C226.255 36.1637 226.152 36.7144 226.152 37.3682C226.152 38.1253 226.273 38.762 226.515 39.2782C226.792 39.76 227.172 40.1902 227.657 40.5687C228.176 40.9473 228.782 41.3603 229.474 41.8076C230.443 42.3927 231.377 42.9777 232.277 43.5627C233.176 44.1134 233.972 44.7328 234.664 45.4211C235.391 46.075 235.962 46.8665 236.377 47.7957C236.792 48.7248 237 49.8777 237 51.2543C237 52.8717 236.637 54.2483 235.91 55.3839C235.218 56.5196 234.232 57.3971 232.951 58.0166C231.706 58.6016 230.235 58.8942 228.539 58.8942Z"></path>
  </mask>
  <path d="M77.0002 47.744L76.7926 44.3371C78.592 44.3371 80.1146 44.1994 81.3603 43.9241C82.6407 43.6488 83.6442 43.167 84.3709 42.4787C85.1321 41.756 85.6858 40.758 86.0319 39.4847C86.3779 38.2114 86.5509 36.5595 86.5509 34.5291C86.5509 32.4298 86.3606 30.778 85.9799 29.5735C85.5993 28.3346 84.9591 27.4398 84.0594 26.8892C83.1943 26.3386 82.0351 26.0633 80.5817 26.0633C79.855 26.0633 79.0591 26.1149 78.194 26.2181C77.3635 26.2869 76.4292 26.4074 75.3911 26.5795L73.0034 21.7787C74.2146 21.6755 75.4084 21.6067 76.5849 21.5722C77.7615 21.5034 78.8342 21.469 79.8031 21.469C82.8137 21.469 85.2533 21.8303 87.1219 22.553C88.9905 23.2757 90.3574 24.5835 91.2225 26.4762C92.0876 28.3346 92.5201 30.9672 92.5201 34.3742C92.5201 36.8176 92.1395 38.8997 91.3782 40.6204C90.6169 42.3066 89.5269 43.6832 88.1081 44.75C86.7239 45.7824 85.0802 46.5396 83.177 47.0213C81.3084 47.5031 79.2495 47.744 77.0002 47.744ZM79.9069 59.1006C79.2841 59.1006 78.5747 59.0834 77.7788 59.049C77.0175 59.049 76.2389 59.0146 75.443 58.9458C74.6471 58.9114 73.8512 58.8769 73.0553 58.8425L75.8063 54.2999C76.8791 54.4031 77.9172 54.5064 78.9207 54.6096C79.9242 54.6784 80.8585 54.7129 81.7236 54.7129C82.658 54.7129 83.5058 54.644 84.267 54.5064C85.0629 54.3687 85.7031 54.0934 86.1876 53.6804C86.672 53.2331 86.9143 52.562 86.9143 51.6672C86.9143 50.9101 86.7066 50.3251 86.2914 49.9121C85.8761 49.4647 85.2533 49.155 84.4228 48.9829C83.6269 48.8109 82.5887 48.7248 81.3084 48.7248C80.9624 48.7248 80.5298 48.742 80.0107 48.7765C79.5263 48.7765 79.0072 48.7765 78.4536 48.7765C77.9345 48.7765 77.45 48.7937 77.0002 48.8281L76.7926 44.3371C80.8412 44.3026 84.0248 44.5952 86.3433 45.2146C88.6964 45.8341 90.3747 46.7116 91.3782 47.8473C92.3817 48.9829 92.8835 50.3423 92.8835 51.9253C92.8835 53.8181 92.3644 55.2979 91.3263 56.3647C90.2882 57.3971 88.8002 58.1198 86.8624 58.5328C84.9245 58.9114 82.6061 59.1006 79.9069 59.1006ZM73.0553 58.8425C73.0553 58.8425 73.0553 58.3263 73.0553 57.2939C73.0899 56.2271 73.1245 54.8161 73.1591 53.061C73.1937 51.3059 73.211 49.3615 73.211 47.2278C73.2456 45.0597 73.2629 42.8917 73.2629 40.7236C73.2629 38.5211 73.2456 36.3186 73.211 34.1161C73.211 31.8792 73.1764 29.8316 73.1072 27.9732C73.0726 26.0805 73.038 24.5835 73.0034 23.4822C73.0034 22.3465 73.0034 21.7787 73.0034 21.7787L79.2841 22.2433C79.2841 22.2433 79.2668 22.6907 79.2322 23.5855C79.2322 24.4458 79.2149 25.5987 79.1802 27.0441C79.1802 28.455 79.1629 30.0037 79.1283 31.6899C79.0937 33.3418 79.0591 34.9593 79.0245 36.5423C79.0245 38.1253 79.0245 39.5191 79.0245 40.7236C79.0245 41.9281 79.0245 43.3046 79.0245 44.8533C79.0591 46.4019 79.0764 47.9677 79.0764 49.5508C79.111 51.1338 79.1283 52.5964 79.1283 53.9385C79.1629 55.2807 79.1802 56.3647 79.1802 57.1907C79.2149 58.0166 79.2322 58.4296 79.2322 58.4296L73.0553 58.8425Z" fill="#106B8D"></path>
  <path d="M102.976 59.1006C100.83 59.1006 99.1691 58.5328 97.9926 57.3971C96.816 56.2271 95.9855 54.6784 95.5011 52.7513C95.1896 51.5468 94.9647 50.2218 94.8263 48.7765C94.7225 47.2967 94.6706 45.748 94.6706 44.1306C94.6706 43.0293 94.7052 41.9969 94.7744 41.0333C94.8436 40.0353 94.9647 39.1061 95.1377 38.2458C95.3107 37.351 95.5357 36.5251 95.8125 35.768C96.4354 33.9785 97.387 32.5675 98.6673 31.5351C99.9823 30.5027 101.695 29.9864 103.806 29.9864C105.848 29.9864 107.439 30.5543 108.581 31.6899C109.723 32.7912 110.554 34.2882 111.073 36.181C111.384 37.2822 111.592 38.5211 111.696 39.8977C111.834 41.2742 111.903 42.7368 111.903 44.2854C111.903 45.9029 111.834 47.4343 111.696 48.8797C111.592 50.3251 111.384 51.6156 111.073 52.7513C110.727 54.0934 110.208 55.2463 109.516 56.2099C108.824 57.139 107.941 57.8617 106.869 58.3779C105.83 58.8597 104.533 59.1006 102.976 59.1006ZM103.339 54.6612C104.204 54.6612 104.844 54.3343 105.259 53.6804C105.675 53.0266 105.952 52.1318 106.09 50.9962C106.194 50.4455 106.246 49.8605 106.246 49.241C106.28 48.5872 106.298 47.8989 106.298 47.1762C106.298 46.4535 106.298 45.6792 106.298 44.8533C106.298 43.5111 106.28 42.2894 106.246 41.1882C106.211 40.0525 106.125 39.0373 105.986 38.1425C105.813 36.9036 105.519 35.9573 105.104 35.3034C104.723 34.6151 104.135 34.271 103.339 34.271C102.854 34.271 102.422 34.4086 102.041 34.6839C101.695 34.9593 101.401 35.3722 101.159 35.9228C100.951 36.4391 100.778 37.0413 100.64 37.7296C100.536 38.349 100.449 39.0373 100.38 39.7944C100.346 40.5171 100.311 41.2914 100.276 42.1174C100.276 42.9433 100.276 43.8036 100.276 44.6984C100.276 45.4899 100.276 46.2642 100.276 47.0213C100.276 47.744 100.294 48.4151 100.328 49.0346C100.398 49.654 100.467 50.2563 100.536 50.8413C100.709 52.0114 101.003 52.9405 101.418 53.6288C101.868 54.3171 102.508 54.6612 103.339 54.6612Z" fill="#106B8D"></path>
  <path d="M120.53 59.1006C119.181 59.1006 118.108 58.8081 117.312 58.2231C116.516 57.6036 115.945 56.7089 115.599 55.5388C115.253 54.3343 115.08 52.8889 115.08 51.2026C115.08 50.5832 115.08 49.7745 115.08 48.7765C115.115 47.744 115.115 46.6084 115.08 45.3695C115.08 44.0962 115.08 42.7712 115.08 41.3947C115.08 40.0181 115.063 38.6588 115.028 37.3166C115.028 35.9745 115.028 34.7184 115.028 33.5483C115.028 32.3438 115.028 31.3114 115.028 30.451L120.582 29.7283C120.548 30.864 120.496 32.1889 120.427 33.7032C120.392 35.2174 120.357 36.8004 120.323 38.4523C120.288 40.0697 120.254 41.6528 120.219 43.2014C120.184 44.75 120.15 46.161 120.115 47.4343C120.115 48.7076 120.115 49.7573 120.115 50.5832C120.115 51.4779 120.167 52.2523 120.271 52.9061C120.375 53.56 120.548 54.059 120.79 54.4031C121.067 54.7473 121.465 54.9193 121.984 54.9193C122.745 54.9193 123.437 54.5064 124.06 53.6804C124.717 52.8201 125.237 51.5296 125.617 49.8089C126.032 48.0882 126.24 45.8857 126.24 43.2014C126.24 42.3066 126.223 41.3775 126.188 40.4139C126.188 39.4503 126.171 38.4695 126.136 37.4715C126.136 36.4391 126.136 35.4066 126.136 34.3742C126.136 33.3074 126.136 32.2406 126.136 31.1737L131.898 31.277C131.829 33.2041 131.759 34.9765 131.69 36.5939C131.656 38.2114 131.621 39.8116 131.586 41.3947C131.552 42.9777 131.517 44.6468 131.483 46.4019C131.483 48.157 131.483 50.1358 131.483 52.3383C131.483 53.1986 131.517 53.9558 131.586 54.6096C131.69 55.2635 131.829 55.8313 132.002 56.3131C132.175 56.7949 132.4 57.2767 132.676 57.7585L128.161 59.1006C127.78 58.6533 127.468 58.0854 127.226 57.3971C126.984 56.6745 126.794 55.7797 126.655 54.7129C125.998 56.055 125.167 57.1218 124.164 57.9134C123.195 58.7049 121.984 59.1006 120.53 59.1006Z" fill="#106B8D"></path>
  <path d="M152.21 59.1523L146.292 59.7201C146.327 58.8942 146.362 57.9994 146.396 57.0358C146.431 56.0378 146.465 54.971 146.5 53.8353C146.535 52.6996 146.552 51.4779 146.552 50.1702C146.587 48.8625 146.604 47.4515 146.604 45.9373C146.604 45.2146 146.604 44.4403 146.604 43.6144C146.604 42.7884 146.604 41.9281 146.604 41.0333C146.604 40.1386 146.604 39.2094 146.604 38.2458C146.604 37.3854 146.535 36.68 146.396 36.1293C146.292 35.5443 146.102 35.0969 145.825 34.7872C145.548 34.4775 145.168 34.3226 144.683 34.3226C144.13 34.3226 143.559 34.5635 142.97 35.0453C142.417 35.5271 141.95 36.4219 141.569 37.7296C141.188 39.0029 140.998 40.8785 140.998 43.3563L138.87 45.8341C138.87 44.0101 138.939 42.3066 139.077 40.7236C139.216 39.1061 139.441 37.6263 139.752 36.2842C140.098 34.9421 140.548 33.8064 141.102 32.8772C141.69 31.9136 142.399 31.1737 143.23 30.6575C144.06 30.1413 145.047 29.8832 146.189 29.8832C147.296 29.8832 148.282 30.1241 149.147 30.6059C150.047 31.0533 150.756 31.862 151.275 33.0321C151.794 34.2022 152.054 35.854 152.054 37.9877C152.054 38.8824 152.054 39.674 152.054 40.3622C152.054 41.0505 152.054 41.6872 152.054 42.2722C152.054 42.8228 152.054 43.3735 152.054 43.9241C152.054 44.4747 152.054 45.0598 152.054 45.6792C152.054 47.2622 152.054 48.6904 152.054 49.9637C152.089 51.2371 152.106 52.4071 152.106 53.474C152.141 54.5064 152.158 55.4872 152.158 56.4164C152.192 57.3455 152.21 58.2575 152.21 59.1523ZM135.133 58.5328C135.167 57.6381 135.202 56.7261 135.236 55.7969C135.271 54.8677 135.306 53.8697 135.34 52.8029C135.409 51.7016 135.444 50.4799 135.444 49.1378C135.479 47.7957 135.496 46.247 135.496 44.4919C135.531 42.1518 135.531 40.0697 135.496 38.2458C135.461 36.3874 135.427 34.8388 135.392 33.5999C135.392 32.3266 135.392 31.4318 135.392 30.9156L140.323 30.7608C140.358 31.1737 140.392 31.776 140.427 32.5675C140.462 33.3246 140.514 34.2538 140.583 35.355C140.652 36.4219 140.704 37.6263 140.738 38.9685C140.808 40.3106 140.894 41.7732 140.998 43.3563C140.998 45.5932 141.015 47.6408 141.05 49.4991C141.085 51.3231 141.119 52.975 141.154 54.4548C141.188 55.9346 141.206 57.2939 141.206 58.5328H135.133Z" fill="#106B8D"></path>
  <path d="M155.32 44.75C155.32 43.2702 155.372 41.842 155.476 40.4655C155.614 39.0545 155.839 37.7468 156.151 36.5423C156.635 34.6151 157.396 33.0665 158.434 31.8964C159.507 30.6919 160.978 30.0897 162.846 30.0897C163.573 30.0897 164.196 30.1929 164.715 30.3994C165.269 30.5715 165.736 30.8296 166.117 31.1737C166.532 31.5179 166.878 31.9136 167.155 32.361C167.155 31.7071 167.137 30.9845 167.103 30.1929C167.103 29.367 167.103 28.5239 167.103 27.6635C167.103 26.7687 167.085 25.9256 167.051 25.1341C167.051 24.3081 167.051 23.551 167.051 22.8628L172.812 22.7079C172.743 25.1857 172.674 27.5086 172.605 29.6767C172.536 31.8104 172.501 33.8064 172.501 35.6647C172.501 37.5231 172.484 39.2954 172.449 40.9817C172.449 42.1862 172.449 43.3907 172.449 44.5952C172.449 45.7996 172.449 47.0041 172.449 48.2086C172.484 49.4131 172.501 50.6176 172.501 51.8221C172.536 52.9922 172.57 54.145 172.605 55.2807C172.639 56.3819 172.674 57.4832 172.709 58.5844L167.57 58.6361L167.414 55.3839C167.068 56.1066 166.636 56.7605 166.117 57.3455C165.597 57.8961 165.009 58.3263 164.352 58.6361C163.729 58.9458 163.002 59.1006 162.172 59.1006C160.995 59.1006 159.992 58.8769 159.161 58.4296C158.365 57.9822 157.708 57.3627 157.189 56.5712C156.704 55.7453 156.324 54.7989 156.047 53.7321C155.735 52.4932 155.528 51.1166 155.424 49.6024C155.355 48.0538 155.32 46.4363 155.32 44.75ZM160.874 44.75C160.874 45.8513 160.874 46.9181 160.874 47.9505C160.874 48.9485 160.926 49.8605 161.03 50.6864C161.134 51.9253 161.358 52.9061 161.704 53.6288C162.085 54.3171 162.708 54.6612 163.573 54.6612C164.334 54.6612 164.957 54.2655 165.442 53.474C165.926 52.6824 166.272 51.6844 166.48 50.4799C166.618 49.8605 166.722 49.2066 166.791 48.5184C166.861 47.7957 166.912 47.073 166.947 46.3503C166.982 45.6276 166.999 44.9221 166.999 44.2338C166.999 43.167 166.964 42.1346 166.895 41.1366C166.86 40.1041 166.791 39.1406 166.687 38.2458C166.514 37.0413 166.22 36.0605 165.805 35.3034C165.39 34.5119 164.784 34.1161 163.988 34.1161C163.469 34.1161 163.019 34.2882 162.639 34.6323C162.293 34.9765 161.999 35.4583 161.756 36.0777C161.549 36.6627 161.376 37.351 161.237 38.1425C161.099 39.1061 160.995 40.1558 160.926 41.2914C160.891 42.4271 160.874 43.58 160.874 44.75Z" fill="#106B8D"></path>
  <path d="M175.735 58.5328C175.769 57.8445 175.786 57.0014 175.786 56.0034C175.821 54.971 175.856 53.8009 175.89 52.4932C175.925 51.1854 175.959 49.74 175.994 48.157C176.029 46.574 176.046 44.8533 176.046 42.9949C176.046 41.3775 176.029 39.674 175.994 37.8844C175.994 36.0605 175.977 34.2538 175.942 32.4642C175.908 30.6747 175.873 29.0056 175.838 27.457C175.838 25.874 175.838 24.5146 175.838 23.379L181.652 22.966C181.617 24.2049 181.583 25.4954 181.548 26.8376C181.513 28.1453 181.479 29.4874 181.444 30.864C181.444 32.2406 181.427 33.6343 181.392 35.0453C181.358 36.4219 181.34 37.7812 181.34 39.1233C181.34 40.4655 181.34 41.756 181.34 42.9949C181.34 44.8189 181.358 46.7116 181.392 48.6732C181.427 50.6004 181.462 52.4415 181.496 54.1967C181.531 55.9173 181.565 57.3627 181.6 58.5328H175.735Z" fill="#106B8D"></path>
  <path d="M193.236 59.2039C191.16 59.2039 189.499 58.6877 188.253 57.6553C187.042 56.6228 186.142 55.2291 185.554 53.474C185.138 52.2351 184.844 50.8585 184.671 49.3443C184.498 47.7957 184.412 46.161 184.412 44.4403C184.412 42.9949 184.481 41.6184 184.619 40.3106C184.758 39.0029 185 37.8156 185.346 36.7488C185.934 34.7528 186.869 33.1525 188.149 31.948C189.464 30.7436 191.281 30.1413 193.599 30.1413C195.537 30.1413 197.06 30.5371 198.167 31.3286C199.274 32.1201 200.07 33.2386 200.555 34.6839C201.039 36.1293 201.281 37.85 201.281 39.846C201.281 40.7752 201.229 41.7732 201.126 42.8401C201.056 43.8725 200.953 44.9393 200.814 46.0405L195.572 42.4271C195.641 41.7732 195.693 41.1538 195.727 40.5687C195.762 39.9837 195.779 39.4159 195.779 38.8652C195.779 37.9361 195.71 37.1273 195.572 36.4391C195.433 35.7508 195.174 35.2174 194.793 34.8388C194.447 34.4258 193.928 34.2194 193.236 34.2194C192.336 34.2194 191.661 34.5979 191.212 35.355C190.796 36.1121 190.502 37.1445 190.329 38.4523C190.225 39.2094 190.156 40.0697 190.121 41.0333C190.087 41.9625 190.07 42.9433 190.07 43.9757C190.07 44.9049 190.07 45.8169 190.07 46.7116C190.07 47.572 190.087 48.3807 190.121 49.1378C190.191 49.8949 190.26 50.5832 190.329 51.2026C190.537 52.3383 190.865 53.2503 191.315 53.9385C191.765 54.5924 192.457 54.9193 193.392 54.9193C194.049 54.9193 194.568 54.7817 194.949 54.5064C195.329 54.1966 195.606 53.7837 195.779 53.2675C195.952 52.7513 196.039 52.1834 196.039 51.564C196.039 51.2198 196.004 50.8585 195.935 50.4799C195.9 50.067 195.848 49.6712 195.779 49.2927H201.177C201.247 49.6712 201.281 50.0498 201.281 50.4283C201.316 50.7725 201.333 51.1166 201.333 51.4607C201.333 53.0438 201.022 54.4203 200.399 55.5904C199.811 56.7605 198.911 57.6553 197.7 58.2747C196.523 58.8942 195.035 59.2039 193.236 59.2039ZM186.125 46.4019L186.021 42.0141L199.88 41.9109L200.814 46.0405C200.814 46.0405 200.468 46.0405 199.776 46.0405C199.119 46.0405 198.253 46.0578 197.181 46.0922C196.108 46.0922 194.914 46.1094 193.599 46.1438C192.319 46.1782 191.021 46.2126 189.706 46.247C188.391 46.2814 187.197 46.3331 186.125 46.4019Z" fill="#106B8D"></path>
  <path d="M210.872 59.1006C209.176 59.1006 207.74 58.8253 206.564 58.2747C205.422 57.6897 204.539 56.8809 203.916 55.8485C203.328 54.7817 203.034 53.56 203.034 52.1834C203.034 51.8393 203.051 51.4952 203.086 51.151C203.12 50.7725 203.172 50.4111 203.242 50.067L208.64 50.0154C208.605 50.3595 208.571 50.6864 208.536 50.9962C208.501 51.2715 208.484 51.564 208.484 51.8737C208.484 52.4243 208.553 52.9405 208.692 53.4223C208.865 53.8697 209.142 54.2311 209.522 54.5064C209.937 54.7473 210.491 54.8677 211.183 54.8677C211.737 54.8677 212.204 54.7473 212.585 54.5064C212.965 54.2655 213.259 53.9385 213.467 53.5256C213.675 53.0782 213.778 52.562 213.778 51.977C213.778 51.2198 213.571 50.6004 213.156 50.1186C212.74 49.6024 212.187 49.1206 211.495 48.6732C210.803 48.2258 210.007 47.7096 209.107 47.1246C208.242 46.574 207.429 46.0061 206.667 45.4211C205.941 44.8361 205.301 44.1994 204.747 43.5111C204.193 42.7884 203.761 41.9797 203.449 41.0849C203.138 40.1558 202.982 39.0889 202.982 37.8844C202.982 36.1293 203.345 34.6495 204.072 33.445C204.833 32.2061 205.854 31.277 207.135 30.6575C208.415 30.0381 209.834 29.7283 211.391 29.7283C213.259 29.7283 214.765 30.0897 215.907 30.8124C217.049 31.5007 217.879 32.4815 218.398 33.7548C218.952 35.0281 219.229 36.5423 219.229 38.2974C219.229 38.5727 219.211 38.8825 219.177 39.2266C219.177 39.5707 219.159 39.9149 219.125 40.259C219.09 40.5687 219.056 40.9129 219.021 41.2914H213.415C213.484 40.672 213.554 40.0869 213.623 39.5363C213.692 38.9857 213.727 38.4523 213.727 37.9361C213.727 36.766 213.536 35.8196 213.156 35.0969C212.81 34.3398 212.169 33.9613 211.235 33.9613C210.716 33.9613 210.249 34.0989 209.834 34.3742C209.418 34.6151 209.09 34.9937 208.847 35.5099C208.64 36.0261 208.536 36.68 208.536 37.4715C208.536 38.4007 208.674 39.1578 208.951 39.7428C209.228 40.3278 209.609 40.844 210.093 41.2914C210.612 41.7044 211.201 42.1346 211.858 42.5819C212.827 43.167 213.761 43.752 214.661 44.3371C215.561 44.9221 216.357 45.5415 217.049 46.1954C217.775 46.8493 218.346 47.6064 218.761 48.4667C219.177 49.2927 219.384 50.3079 219.384 51.5124C219.384 53.1298 219.021 54.5064 218.294 55.642C217.602 56.7433 216.616 57.6036 215.336 58.2231C214.09 58.8081 212.602 59.1006 210.872 59.1006Z" fill="#106B8D"></path>
  <path d="M228.539 58.8942C227.224 58.8942 226.065 58.7393 225.062 58.4296C224.058 58.0854 223.228 57.6208 222.57 57.0358C221.947 56.4164 221.463 55.6765 221.117 54.8161C220.805 53.9213 220.65 52.9233 220.65 51.8221C220.65 51.4091 220.667 50.9789 220.701 50.5316C220.771 50.0842 220.857 49.6196 220.961 49.1378L226.359 49.0862C226.29 49.5336 226.221 49.9637 226.152 50.3767C226.117 50.7897 226.1 51.1682 226.1 51.5124C226.1 52.5792 226.29 53.3707 226.671 53.8869C227.051 54.4031 227.726 54.6612 228.695 54.6612C229.318 54.6612 229.82 54.5408 230.2 54.2999C230.616 54.0246 230.91 53.646 231.083 53.1642C231.29 52.6824 231.394 52.149 231.394 51.564C231.394 50.7036 231.187 50.0154 230.771 49.4991C230.356 48.9485 229.785 48.4667 229.058 48.0538C228.366 47.6064 227.553 47.1246 226.619 46.6084C225.754 46.0922 224.94 45.5588 224.179 45.0081C223.452 44.4231 222.812 43.8036 222.259 43.1498C221.74 42.4615 221.324 41.67 221.013 40.7752C220.736 39.8805 220.598 38.848 220.598 37.678C220.598 36.0261 220.961 34.6495 221.688 33.5483C222.449 32.4126 223.47 31.5523 224.75 30.9672C226.031 30.3822 227.449 30.0897 229.006 30.0897C230.84 30.0897 232.328 30.3994 233.47 31.0189C234.612 31.6383 235.46 32.4987 236.014 33.5999C236.567 34.6667 236.844 35.9228 236.844 37.3682C236.844 37.5747 236.827 37.8156 236.792 38.0909C236.792 38.3318 236.775 38.5899 236.74 38.8652C236.706 39.1061 236.671 39.3642 236.637 39.6396H231.031C231.135 39.2954 231.204 38.9513 231.238 38.6071C231.273 38.2286 231.29 37.8672 231.29 37.5231C231.29 36.6628 231.1 35.9228 230.719 35.3034C230.373 34.6495 229.75 34.3226 228.851 34.3226C228.297 34.3226 227.813 34.443 227.397 34.6839C227.017 34.9248 226.705 35.269 226.463 35.7164C226.255 36.1637 226.152 36.7144 226.152 37.3682C226.152 38.1253 226.273 38.762 226.515 39.2782C226.792 39.76 227.172 40.1902 227.657 40.5687C228.176 40.9473 228.782 41.3603 229.474 41.8076C230.443 42.3927 231.377 42.9777 232.277 43.5627C233.176 44.1134 233.972 44.7328 234.664 45.4211C235.391 46.075 235.962 46.8665 236.377 47.7957C236.792 48.7248 237 49.8777 237 51.2543C237 52.8717 236.637 54.2483 235.91 55.3839C235.218 56.5196 234.232 57.3971 232.951 58.0166C231.706 58.6016 230.235 58.8942 228.539 58.8942Z" fill="#106B8D"></path>
  <path d="M77.0002 47.744L76.7926 44.3371C78.592 44.3371 80.1146 44.1994 81.3603 43.9241C82.6407 43.6488 83.6442 43.167 84.3709 42.4787C85.1321 41.756 85.6858 40.758 86.0319 39.4847C86.3779 38.2114 86.5509 36.5595 86.5509 34.5291C86.5509 32.4298 86.3606 30.778 85.9799 29.5735C85.5993 28.3346 84.9591 27.4398 84.0594 26.8892C83.1943 26.3386 82.0351 26.0633 80.5817 26.0633C79.855 26.0633 79.0591 26.1149 78.194 26.2181C77.3635 26.2869 76.4292 26.4074 75.3911 26.5795L73.0034 21.7787C74.2146 21.6755 75.4084 21.6067 76.5849 21.5722C77.7615 21.5034 78.8342 21.469 79.8031 21.469C82.8137 21.469 85.2533 21.8303 87.1219 22.553C88.9905 23.2757 90.3574 24.5835 91.2225 26.4762C92.0876 28.3346 92.5201 30.9672 92.5201 34.3742C92.5201 36.8176 92.1395 38.8997 91.3782 40.6204C90.6169 42.3066 89.5269 43.6832 88.1081 44.75C86.7239 45.7824 85.0802 46.5396 83.177 47.0213C81.3084 47.5031 79.2495 47.744 77.0002 47.744ZM79.9069 59.1006C79.2841 59.1006 78.5747 59.0834 77.7788 59.049C77.0175 59.049 76.2389 59.0146 75.443 58.9458C74.6471 58.9114 73.8512 58.8769 73.0553 58.8425L75.8063 54.2999C76.8791 54.4031 77.9172 54.5064 78.9207 54.6096C79.9242 54.6784 80.8585 54.7129 81.7236 54.7129C82.658 54.7129 83.5058 54.644 84.267 54.5064C85.0629 54.3687 85.7031 54.0934 86.1876 53.6804C86.672 53.2331 86.9143 52.562 86.9143 51.6672C86.9143 50.9101 86.7066 50.3251 86.2914 49.9121C85.8761 49.4647 85.2533 49.155 84.4228 48.9829C83.6269 48.8109 82.5887 48.7248 81.3084 48.7248C80.9624 48.7248 80.5298 48.742 80.0107 48.7765C79.5263 48.7765 79.0072 48.7765 78.4536 48.7765C77.9345 48.7765 77.45 48.7937 77.0002 48.8281L76.7926 44.3371C80.8412 44.3026 84.0248 44.5952 86.3433 45.2146C88.6964 45.8341 90.3747 46.7116 91.3782 47.8473C92.3817 48.9829 92.8835 50.3423 92.8835 51.9253C92.8835 53.8181 92.3644 55.2979 91.3263 56.3647C90.2882 57.3971 88.8002 58.1198 86.8624 58.5328C84.9245 58.9114 82.6061 59.1006 79.9069 59.1006ZM73.0553 58.8425C73.0553 58.8425 73.0553 58.3263 73.0553 57.2939C73.0899 56.2271 73.1245 54.8161 73.1591 53.061C73.1937 51.3059 73.211 49.3615 73.211 47.2278C73.2456 45.0597 73.2629 42.8917 73.2629 40.7236C73.2629 38.5211 73.2456 36.3186 73.211 34.1161C73.211 31.8792 73.1764 29.8316 73.1072 27.9732C73.0726 26.0805 73.038 24.5835 73.0034 23.4822C73.0034 22.3465 73.0034 21.7787 73.0034 21.7787L79.2841 22.2433C79.2841 22.2433 79.2668 22.6907 79.2322 23.5855C79.2322 24.4458 79.2149 25.5987 79.1802 27.0441C79.1802 28.455 79.1629 30.0037 79.1283 31.6899C79.0937 33.3418 79.0591 34.9593 79.0245 36.5423C79.0245 38.1253 79.0245 39.5191 79.0245 40.7236C79.0245 41.9281 79.0245 43.3046 79.0245 44.8533C79.0591 46.4019 79.0764 47.9677 79.0764 49.5508C79.111 51.1338 79.1283 52.5964 79.1283 53.9385C79.1629 55.2807 79.1802 56.3647 79.1802 57.1907C79.2149 58.0166 79.2322 58.4296 79.2322 58.4296L73.0553 58.8425Z" stroke="white" stroke-width="6" stroke-linejoin="round" mask="url(#path-3-outside-1_176_141)"></path>
  <path d="M102.976 59.1006C100.83 59.1006 99.1691 58.5328 97.9926 57.3971C96.816 56.2271 95.9855 54.6784 95.5011 52.7513C95.1896 51.5468 94.9647 50.2218 94.8263 48.7765C94.7225 47.2967 94.6706 45.748 94.6706 44.1306C94.6706 43.0293 94.7052 41.9969 94.7744 41.0333C94.8436 40.0353 94.9647 39.1061 95.1377 38.2458C95.3107 37.351 95.5357 36.5251 95.8125 35.768C96.4354 33.9785 97.387 32.5675 98.6673 31.5351C99.9823 30.5027 101.695 29.9864 103.806 29.9864C105.848 29.9864 107.439 30.5543 108.581 31.6899C109.723 32.7912 110.554 34.2882 111.073 36.181C111.384 37.2822 111.592 38.5211 111.696 39.8977C111.834 41.2742 111.903 42.7368 111.903 44.2854C111.903 45.9029 111.834 47.4343 111.696 48.8797C111.592 50.3251 111.384 51.6156 111.073 52.7513C110.727 54.0934 110.208 55.2463 109.516 56.2099C108.824 57.139 107.941 57.8617 106.869 58.3779C105.83 58.8597 104.533 59.1006 102.976 59.1006ZM103.339 54.6612C104.204 54.6612 104.844 54.3343 105.259 53.6804C105.675 53.0266 105.952 52.1318 106.09 50.9962C106.194 50.4455 106.246 49.8605 106.246 49.241C106.28 48.5872 106.298 47.8989 106.298 47.1762C106.298 46.4535 106.298 45.6792 106.298 44.8533C106.298 43.5111 106.28 42.2894 106.246 41.1882C106.211 40.0525 106.125 39.0373 105.986 38.1425C105.813 36.9036 105.519 35.9573 105.104 35.3034C104.723 34.6151 104.135 34.271 103.339 34.271C102.854 34.271 102.422 34.4086 102.041 34.6839C101.695 34.9593 101.401 35.3722 101.159 35.9228C100.951 36.4391 100.778 37.0413 100.64 37.7296C100.536 38.349 100.449 39.0373 100.38 39.7944C100.346 40.5171 100.311 41.2914 100.276 42.1174C100.276 42.9433 100.276 43.8036 100.276 44.6984C100.276 45.4899 100.276 46.2642 100.276 47.0213C100.276 47.744 100.294 48.4151 100.328 49.0346C100.398 49.654 100.467 50.2563 100.536 50.8413C100.709 52.0114 101.003 52.9405 101.418 53.6288C101.868 54.3171 102.508 54.6612 103.339 54.6612Z" stroke="white" stroke-width="6" stroke-linejoin="round" mask="url(#path-3-outside-1_176_141)"></path>
  <path d="M120.53 59.1006C119.181 59.1006 118.108 58.8081 117.312 58.2231C116.516 57.6036 115.945 56.7089 115.599 55.5388C115.253 54.3343 115.08 52.8889 115.08 51.2026C115.08 50.5832 115.08 49.7745 115.08 48.7765C115.115 47.744 115.115 46.6084 115.08 45.3695C115.08 44.0962 115.08 42.7712 115.08 41.3947C115.08 40.0181 115.063 38.6588 115.028 37.3166C115.028 35.9745 115.028 34.7184 115.028 33.5483C115.028 32.3438 115.028 31.3114 115.028 30.451L120.582 29.7283C120.548 30.864 120.496 32.1889 120.427 33.7032C120.392 35.2174 120.357 36.8004 120.323 38.4523C120.288 40.0697 120.254 41.6528 120.219 43.2014C120.184 44.75 120.15 46.161 120.115 47.4343C120.115 48.7076 120.115 49.7573 120.115 50.5832C120.115 51.4779 120.167 52.2523 120.271 52.9061C120.375 53.56 120.548 54.059 120.79 54.4031C121.067 54.7473 121.465 54.9193 121.984 54.9193C122.745 54.9193 123.437 54.5064 124.06 53.6804C124.717 52.8201 125.237 51.5296 125.617 49.8089C126.032 48.0882 126.24 45.8857 126.24 43.2014C126.24 42.3066 126.223 41.3775 126.188 40.4139C126.188 39.4503 126.171 38.4695 126.136 37.4715C126.136 36.4391 126.136 35.4066 126.136 34.3742C126.136 33.3074 126.136 32.2406 126.136 31.1737L131.898 31.277C131.829 33.2041 131.759 34.9765 131.69 36.5939C131.656 38.2114 131.621 39.8116 131.586 41.3947C131.552 42.9777 131.517 44.6468 131.483 46.4019C131.483 48.157 131.483 50.1358 131.483 52.3383C131.483 53.1986 131.517 53.9558 131.586 54.6096C131.69 55.2635 131.829 55.8313 132.002 56.3131C132.175 56.7949 132.4 57.2767 132.676 57.7585L128.161 59.1006C127.78 58.6533 127.468 58.0854 127.226 57.3971C126.984 56.6745 126.794 55.7797 126.655 54.7129C125.998 56.055 125.167 57.1218 124.164 57.9134C123.195 58.7049 121.984 59.1006 120.53 59.1006Z" stroke="white" stroke-width="6" stroke-linejoin="round" mask="url(#path-3-outside-1_176_141)"></path>
  <path d="M152.21 59.1523L146.292 59.7201C146.327 58.8942 146.362 57.9994 146.396 57.0358C146.431 56.0378 146.465 54.971 146.5 53.8353C146.535 52.6996 146.552 51.4779 146.552 50.1702C146.587 48.8625 146.604 47.4515 146.604 45.9373C146.604 45.2146 146.604 44.4403 146.604 43.6144C146.604 42.7884 146.604 41.9281 146.604 41.0333C146.604 40.1386 146.604 39.2094 146.604 38.2458C146.604 37.3854 146.535 36.68 146.396 36.1293C146.292 35.5443 146.102 35.0969 145.825 34.7872C145.548 34.4775 145.168 34.3226 144.683 34.3226C144.13 34.3226 143.559 34.5635 142.97 35.0453C142.417 35.5271 141.95 36.4219 141.569 37.7296C141.188 39.0029 140.998 40.8785 140.998 43.3563L138.87 45.8341C138.87 44.0101 138.939 42.3066 139.077 40.7236C139.216 39.1061 139.441 37.6263 139.752 36.2842C140.098 34.9421 140.548 33.8064 141.102 32.8772C141.69 31.9136 142.399 31.1737 143.23 30.6575C144.06 30.1413 145.047 29.8832 146.189 29.8832C147.296 29.8832 148.282 30.1241 149.147 30.6059C150.047 31.0533 150.756 31.862 151.275 33.0321C151.794 34.2022 152.054 35.854 152.054 37.9877C152.054 38.8824 152.054 39.674 152.054 40.3622C152.054 41.0505 152.054 41.6872 152.054 42.2722C152.054 42.8228 152.054 43.3735 152.054 43.9241C152.054 44.4747 152.054 45.0598 152.054 45.6792C152.054 47.2622 152.054 48.6904 152.054 49.9637C152.089 51.2371 152.106 52.4071 152.106 53.474C152.141 54.5064 152.158 55.4872 152.158 56.4164C152.192 57.3455 152.21 58.2575 152.21 59.1523ZM135.133 58.5328C135.167 57.6381 135.202 56.7261 135.236 55.7969C135.271 54.8677 135.306 53.8697 135.34 52.8029C135.409 51.7016 135.444 50.4799 135.444 49.1378C135.479 47.7957 135.496 46.247 135.496 44.4919C135.531 42.1518 135.531 40.0697 135.496 38.2458C135.461 36.3874 135.427 34.8388 135.392 33.5999C135.392 32.3266 135.392 31.4318 135.392 30.9156L140.323 30.7608C140.358 31.1737 140.392 31.776 140.427 32.5675C140.462 33.3246 140.514 34.2538 140.583 35.355C140.652 36.4219 140.704 37.6263 140.738 38.9685C140.808 40.3106 140.894 41.7732 140.998 43.3563C140.998 45.5932 141.015 47.6408 141.05 49.4991C141.085 51.3231 141.119 52.975 141.154 54.4548C141.188 55.9346 141.206 57.2939 141.206 58.5328H135.133Z" stroke="white" stroke-width="6" stroke-linejoin="round" mask="url(#path-3-outside-1_176_141)"></path>
  <path d="M155.32 44.75C155.32 43.2702 155.372 41.842 155.476 40.4655C155.614 39.0545 155.839 37.7468 156.151 36.5423C156.635 34.6151 157.396 33.0665 158.434 31.8964C159.507 30.6919 160.978 30.0897 162.846 30.0897C163.573 30.0897 164.196 30.1929 164.715 30.3994C165.269 30.5715 165.736 30.8296 166.117 31.1737C166.532 31.5179 166.878 31.9136 167.155 32.361C167.155 31.7071 167.137 30.9845 167.103 30.1929C167.103 29.367 167.103 28.5239 167.103 27.6635C167.103 26.7687 167.085 25.9256 167.051 25.1341C167.051 24.3081 167.051 23.551 167.051 22.8628L172.812 22.7079C172.743 25.1857 172.674 27.5086 172.605 29.6767C172.536 31.8104 172.501 33.8064 172.501 35.6647C172.501 37.5231 172.484 39.2954 172.449 40.9817C172.449 42.1862 172.449 43.3907 172.449 44.5952C172.449 45.7996 172.449 47.0041 172.449 48.2086C172.484 49.4131 172.501 50.6176 172.501 51.8221C172.536 52.9922 172.57 54.145 172.605 55.2807C172.639 56.3819 172.674 57.4832 172.709 58.5844L167.57 58.6361L167.414 55.3839C167.068 56.1066 166.636 56.7605 166.117 57.3455C165.597 57.8961 165.009 58.3263 164.352 58.6361C163.729 58.9458 163.002 59.1006 162.172 59.1006C160.995 59.1006 159.992 58.8769 159.161 58.4296C158.365 57.9822 157.708 57.3627 157.189 56.5712C156.704 55.7453 156.324 54.7989 156.047 53.7321C155.735 52.4932 155.528 51.1166 155.424 49.6024C155.355 48.0538 155.32 46.4363 155.32 44.75ZM160.874 44.75C160.874 45.8513 160.874 46.9181 160.874 47.9505C160.874 48.9485 160.926 49.8605 161.03 50.6864C161.134 51.9253 161.358 52.9061 161.704 53.6288C162.085 54.3171 162.708 54.6612 163.573 54.6612C164.334 54.6612 164.957 54.2655 165.442 53.474C165.926 52.6824 166.272 51.6844 166.48 50.4799C166.618 49.8605 166.722 49.2066 166.791 48.5184C166.861 47.7957 166.912 47.073 166.947 46.3503C166.982 45.6276 166.999 44.9221 166.999 44.2338C166.999 43.167 166.964 42.1346 166.895 41.1366C166.86 40.1041 166.791 39.1406 166.687 38.2458C166.514 37.0413 166.22 36.0605 165.805 35.3034C165.39 34.5119 164.784 34.1161 163.988 34.1161C163.469 34.1161 163.019 34.2882 162.639 34.6323C162.293 34.9765 161.999 35.4583 161.756 36.0777C161.549 36.6627 161.376 37.351 161.237 38.1425C161.099 39.1061 160.995 40.1558 160.926 41.2914C160.891 42.4271 160.874 43.58 160.874 44.75Z" stroke="white" stroke-width="6" stroke-linejoin="round" mask="url(#path-3-outside-1_176_141)"></path>
  <path d="M175.735 58.5328C175.769 57.8445 175.786 57.0014 175.786 56.0034C175.821 54.971 175.856 53.8009 175.89 52.4932C175.925 51.1854 175.959 49.74 175.994 48.157C176.029 46.574 176.046 44.8533 176.046 42.9949C176.046 41.3775 176.029 39.674 175.994 37.8844C175.994 36.0605 175.977 34.2538 175.942 32.4642C175.908 30.6747 175.873 29.0056 175.838 27.457C175.838 25.874 175.838 24.5146 175.838 23.379L181.652 22.966C181.617 24.2049 181.583 25.4954 181.548 26.8376C181.513 28.1453 181.479 29.4874 181.444 30.864C181.444 32.2406 181.427 33.6343 181.392 35.0453C181.358 36.4219 181.34 37.7812 181.34 39.1233C181.34 40.4655 181.34 41.756 181.34 42.9949C181.34 44.8189 181.358 46.7116 181.392 48.6732C181.427 50.6004 181.462 52.4415 181.496 54.1967C181.531 55.9173 181.565 57.3627 181.6 58.5328H175.735Z" stroke="white" stroke-width="6" stroke-linejoin="round" mask="url(#path-3-outside-1_176_141)"></path>
  <path d="M193.236 59.2039C191.16 59.2039 189.499 58.6877 188.253 57.6553C187.042 56.6228 186.142 55.2291 185.554 53.474C185.138 52.2351 184.844 50.8585 184.671 49.3443C184.498 47.7957 184.412 46.161 184.412 44.4403C184.412 42.9949 184.481 41.6184 184.619 40.3106C184.758 39.0029 185 37.8156 185.346 36.7488C185.934 34.7528 186.869 33.1525 188.149 31.948C189.464 30.7436 191.281 30.1413 193.599 30.1413C195.537 30.1413 197.06 30.5371 198.167 31.3286C199.274 32.1201 200.07 33.2386 200.555 34.6839C201.039 36.1293 201.281 37.85 201.281 39.846C201.281 40.7752 201.229 41.7732 201.126 42.8401C201.056 43.8725 200.953 44.9393 200.814 46.0405L195.572 42.4271C195.641 41.7732 195.693 41.1538 195.727 40.5687C195.762 39.9837 195.779 39.4159 195.779 38.8652C195.779 37.9361 195.71 37.1273 195.572 36.4391C195.433 35.7508 195.174 35.2174 194.793 34.8388C194.447 34.4258 193.928 34.2194 193.236 34.2194C192.336 34.2194 191.661 34.5979 191.212 35.355C190.796 36.1121 190.502 37.1445 190.329 38.4523C190.225 39.2094 190.156 40.0697 190.121 41.0333C190.087 41.9625 190.07 42.9433 190.07 43.9757C190.07 44.9049 190.07 45.8169 190.07 46.7116C190.07 47.572 190.087 48.3807 190.121 49.1378C190.191 49.8949 190.26 50.5832 190.329 51.2026C190.537 52.3383 190.865 53.2503 191.315 53.9385C191.765 54.5924 192.457 54.9193 193.392 54.9193C194.049 54.9193 194.568 54.7817 194.949 54.5064C195.329 54.1966 195.606 53.7837 195.779 53.2675C195.952 52.7513 196.039 52.1834 196.039 51.564C196.039 51.2198 196.004 50.8585 195.935 50.4799C195.9 50.067 195.848 49.6712 195.779 49.2927H201.177C201.247 49.6712 201.281 50.0498 201.281 50.4283C201.316 50.7725 201.333 51.1166 201.333 51.4607C201.333 53.0438 201.022 54.4203 200.399 55.5904C199.811 56.7605 198.911 57.6553 197.7 58.2747C196.523 58.8942 195.035 59.2039 193.236 59.2039ZM186.125 46.4019L186.021 42.0141L199.88 41.9109L200.814 46.0405C200.814 46.0405 200.468 46.0405 199.776 46.0405C199.119 46.0405 198.253 46.0578 197.181 46.0922C196.108 46.0922 194.914 46.1094 193.599 46.1438C192.319 46.1782 191.021 46.2126 189.706 46.247C188.391 46.2814 187.197 46.3331 186.125 46.4019Z" stroke="white" stroke-width="6" stroke-linejoin="round" mask="url(#path-3-outside-1_176_141)"></path>
  <path d="M210.872 59.1006C209.176 59.1006 207.74 58.8253 206.564 58.2747C205.422 57.6897 204.539 56.8809 203.916 55.8485C203.328 54.7817 203.034 53.56 203.034 52.1834C203.034 51.8393 203.051 51.4952 203.086 51.151C203.12 50.7725 203.172 50.4111 203.242 50.067L208.64 50.0154C208.605 50.3595 208.571 50.6864 208.536 50.9962C208.501 51.2715 208.484 51.564 208.484 51.8737C208.484 52.4243 208.553 52.9405 208.692 53.4223C208.865 53.8697 209.142 54.2311 209.522 54.5064C209.937 54.7473 210.491 54.8677 211.183 54.8677C211.737 54.8677 212.204 54.7473 212.585 54.5064C212.965 54.2655 213.259 53.9385 213.467 53.5256C213.675 53.0782 213.778 52.562 213.778 51.977C213.778 51.2198 213.571 50.6004 213.156 50.1186C212.74 49.6024 212.187 49.1206 211.495 48.6732C210.803 48.2258 210.007 47.7096 209.107 47.1246C208.242 46.574 207.429 46.0061 206.667 45.4211C205.941 44.8361 205.301 44.1994 204.747 43.5111C204.193 42.7884 203.761 41.9797 203.449 41.0849C203.138 40.1558 202.982 39.0889 202.982 37.8844C202.982 36.1293 203.345 34.6495 204.072 33.445C204.833 32.2061 205.854 31.277 207.135 30.6575C208.415 30.0381 209.834 29.7283 211.391 29.7283C213.259 29.7283 214.765 30.0897 215.907 30.8124C217.049 31.5007 217.879 32.4815 218.398 33.7548C218.952 35.0281 219.229 36.5423 219.229 38.2974C219.229 38.5727 219.211 38.8825 219.177 39.2266C219.177 39.5707 219.159 39.9149 219.125 40.259C219.09 40.5687 219.056 40.9129 219.021 41.2914H213.415C213.484 40.672 213.554 40.0869 213.623 39.5363C213.692 38.9857 213.727 38.4523 213.727 37.9361C213.727 36.766 213.536 35.8196 213.156 35.0969C212.81 34.3398 212.169 33.9613 211.235 33.9613C210.716 33.9613 210.249 34.0989 209.834 34.3742C209.418 34.6151 209.09 34.9937 208.847 35.5099C208.64 36.0261 208.536 36.68 208.536 37.4715C208.536 38.4007 208.674 39.1578 208.951 39.7428C209.228 40.3278 209.609 40.844 210.093 41.2914C210.612 41.7044 211.201 42.1346 211.858 42.5819C212.827 43.167 213.761 43.752 214.661 44.3371C215.561 44.9221 216.357 45.5415 217.049 46.1954C217.775 46.8493 218.346 47.6064 218.761 48.4667C219.177 49.2927 219.384 50.3079 219.384 51.5124C219.384 53.1298 219.021 54.5064 218.294 55.642C217.602 56.7433 216.616 57.6036 215.336 58.2231C214.09 58.8081 212.602 59.1006 210.872 59.1006Z" stroke="white" stroke-width="6" stroke-linejoin="round" mask="url(#path-3-outside-1_176_141)"></path>
  <path d="M228.539 58.8942C227.224 58.8942 226.065 58.7393 225.062 58.4296C224.058 58.0854 223.228 57.6208 222.57 57.0358C221.947 56.4164 221.463 55.6765 221.117 54.8161C220.805 53.9213 220.65 52.9233 220.65 51.8221C220.65 51.4091 220.667 50.9789 220.701 50.5316C220.771 50.0842 220.857 49.6196 220.961 49.1378L226.359 49.0862C226.29 49.5336 226.221 49.9637 226.152 50.3767C226.117 50.7897 226.1 51.1682 226.1 51.5124C226.1 52.5792 226.29 53.3707 226.671 53.8869C227.051 54.4031 227.726 54.6612 228.695 54.6612C229.318 54.6612 229.82 54.5408 230.2 54.2999C230.616 54.0246 230.91 53.646 231.083 53.1642C231.29 52.6824 231.394 52.149 231.394 51.564C231.394 50.7036 231.187 50.0154 230.771 49.4991C230.356 48.9485 229.785 48.4667 229.058 48.0538C228.366 47.6064 227.553 47.1246 226.619 46.6084C225.754 46.0922 224.94 45.5588 224.179 45.0081C223.452 44.4231 222.812 43.8036 222.259 43.1498C221.74 42.4615 221.324 41.67 221.013 40.7752C220.736 39.8805 220.598 38.848 220.598 37.678C220.598 36.0261 220.961 34.6495 221.688 33.5483C222.449 32.4126 223.47 31.5523 224.75 30.9672C226.031 30.3822 227.449 30.0897 229.006 30.0897C230.84 30.0897 232.328 30.3994 233.47 31.0189C234.612 31.6383 235.46 32.4987 236.014 33.5999C236.567 34.6667 236.844 35.9228 236.844 37.3682C236.844 37.5747 236.827 37.8156 236.792 38.0909C236.792 38.3318 236.775 38.5899 236.74 38.8652C236.706 39.1061 236.671 39.3642 236.637 39.6396H231.031C231.135 39.2954 231.204 38.9513 231.238 38.6071C231.273 38.2286 231.29 37.8672 231.29 37.5231C231.29 36.6628 231.1 35.9228 230.719 35.3034C230.373 34.6495 229.75 34.3226 228.851 34.3226C228.297 34.3226 227.813 34.443 227.397 34.6839C227.017 34.9248 226.705 35.269 226.463 35.7164C226.255 36.1637 226.152 36.7144 226.152 37.3682C226.152 38.1253 226.273 38.762 226.515 39.2782C226.792 39.76 227.172 40.1902 227.657 40.5687C228.176 40.9473 228.782 41.3603 229.474 41.8076C230.443 42.3927 231.377 42.9777 232.277 43.5627C233.176 44.1134 233.972 44.7328 234.664 45.4211C235.391 46.075 235.962 46.8665 236.377 47.7957C236.792 48.7248 237 49.8777 237 51.2543C237 52.8717 236.637 54.2483 235.91 55.3839C235.218 56.5196 234.232 57.3971 232.951 58.0166C231.706 58.6016 230.235 58.8942 228.539 58.8942Z" stroke="white" stroke-width="6" stroke-linejoin="round" mask="url(#path-3-outside-1_176_141)"></path>
  <path d="M84.9748 75.9336L80.1398 76.5541L79.555 74.3631H77.3324L76.845 76.5541L71.8735 76.0693L75.7532 63.1564L81.1731 62.8849L84.9748 75.9336ZM79.204 71.3966L78.4632 68.023L77.7418 71.3966H79.204Z" fill="#106B8D"></path>
  <path d="M96.6233 69.07C96.6233 69.9748 96.5063 70.7859 96.2724 71.5033C96.0384 72.2206 95.7102 72.8572 95.2878 73.4131C94.8719 73.9624 94.3748 74.431 93.7964 74.8188C93.218 75.2065 92.5844 75.5264 91.8955 75.7785C91.2067 76.0241 90.4723 76.2051 89.6925 76.3214C88.9191 76.4377 88.1231 76.4959 87.3042 76.4959C86.9988 76.4959 86.6998 76.4894 86.4074 76.4765C86.115 76.4571 85.816 76.4313 85.5106 76.3989L85.7835 63.7768C86.4984 63.5506 87.2327 63.3923 87.9866 63.3018C88.7469 63.2048 89.5008 63.1564 90.2481 63.1564C91.1774 63.1564 92.032 63.2856 92.8118 63.5441C93.5917 63.8026 94.2643 64.184 94.8297 64.6881C95.3951 65.1857 95.8337 65.8029 96.1457 66.5397C96.4641 67.27 96.6233 68.1134 96.6233 69.07ZM89.9947 72.7926C90.3846 72.7345 90.7388 72.6181 91.0572 72.4436C91.3821 72.2627 91.6616 72.0429 91.8955 71.7844C92.1295 71.5194 92.3082 71.2221 92.4317 70.8925C92.5616 70.5564 92.6266 70.201 92.6266 69.8261C92.6266 69.4577 92.5876 69.1152 92.5097 68.7985C92.4317 68.4754 92.3049 68.1975 92.1295 67.9648C91.954 67.7257 91.7233 67.5382 91.4374 67.4025C91.1514 67.2603 90.8005 67.1828 90.3846 67.1698L89.9947 72.7926Z" fill="#106B8D"></path>
  <path d="M109.305 63.1757L105.737 76.2826L100.902 76.5541L96.5157 63.8931L101.136 63.4666L103.008 70.8343L104.821 62.8849L109.305 63.1757Z" fill="#106B8D"></path>
  <path d="M120.378 68.9342C120.378 69.4965 120.339 70.0588 120.261 70.6211C119.15 70.6922 118.045 70.8085 116.947 70.9701C115.849 71.1252 114.751 71.2803 113.652 71.4354C113.821 71.9007 114.084 72.2724 114.442 72.5503C114.806 72.8282 115.238 72.9671 115.738 72.9671C115.998 72.9671 116.281 72.9186 116.586 72.8217C116.898 72.7248 117.207 72.6052 117.512 72.463C117.818 72.3144 118.11 72.156 118.39 71.988C118.669 71.8199 118.91 71.6681 119.111 71.5323L118.643 75.9336C118.39 76.1275 118.114 76.2923 117.815 76.428C117.522 76.5638 117.217 76.6736 116.898 76.7576C116.58 76.8417 116.258 76.9031 115.933 76.9418C115.608 76.9806 115.29 77 114.978 77C114.335 77 113.747 76.9128 113.214 76.7383C112.681 76.5638 112.197 76.3214 111.761 76.0112C111.332 75.6945 110.955 75.3229 110.63 74.8963C110.305 74.4698 110.036 74.0044 109.821 73.5003C109.607 72.9962 109.444 72.463 109.334 71.9007C109.223 71.3385 109.168 70.7697 109.168 70.1945C109.168 69.5935 109.223 68.9924 109.334 68.3913C109.444 67.7903 109.61 67.2119 109.831 66.656C110.059 66.1002 110.341 65.5864 110.679 65.1146C111.024 64.6364 111.423 64.2195 111.878 63.864C112.333 63.5086 112.846 63.2307 113.418 63.0303C113.997 62.83 114.634 62.7298 115.329 62.7298C115.907 62.7298 116.434 62.8106 116.908 62.9722C117.389 63.1273 117.815 63.347 118.185 63.6314C118.562 63.9093 118.887 64.2421 119.16 64.6299C119.439 65.0177 119.667 65.4442 119.842 65.9096C120.024 66.3684 120.157 66.8564 120.242 67.3734C120.333 67.884 120.378 68.4043 120.378 68.9342ZM116.479 68.4301C116.479 68.2492 116.46 68.065 116.421 67.8775C116.382 67.6837 116.317 67.5092 116.226 67.354C116.141 67.1989 116.028 67.0729 115.885 66.976C115.742 66.8726 115.563 66.8208 115.348 66.8208C115.088 66.8208 114.858 66.8919 114.656 67.0341C114.461 67.1698 114.292 67.3443 114.149 67.5576C114.006 67.7644 113.889 67.9906 113.798 68.2362C113.708 68.4818 113.639 68.708 113.594 68.9148L116.479 68.6434V68.4301Z" fill="#106B8D"></path>
  <path d="M133.518 71.862C133.518 72.5923 133.509 73.3161 133.489 74.0335C133.476 74.7444 133.453 75.4618 133.421 76.1857L127.806 76.0887C128.001 74.9448 128.17 73.8041 128.313 72.6666C128.456 71.5226 128.527 70.369 128.527 69.2057C128.527 69.1217 128.524 68.9859 128.518 68.7985C128.511 68.6111 128.498 68.401 128.479 68.1684C128.459 67.9292 128.43 67.6869 128.391 67.4413C128.358 67.1892 128.31 66.9598 128.245 66.753C128.186 66.5462 128.111 66.3781 128.02 66.2489C127.936 66.1132 127.832 66.0453 127.708 66.0453C127.488 66.0453 127.299 66.1099 127.143 66.2392C126.994 66.3684 126.867 66.5365 126.763 66.7433C126.665 66.9436 126.587 67.1698 126.529 67.4219C126.47 67.674 126.425 67.926 126.393 68.1781C126.367 68.4301 126.347 68.6693 126.334 68.8955C126.328 69.1152 126.324 69.2962 126.324 69.4383C126.292 70.5823 126.266 71.7198 126.246 72.8508C126.227 73.9753 126.201 75.1128 126.168 76.2632L121.197 76.4765C121.327 74.1951 121.45 71.9266 121.567 69.671C121.691 67.4154 121.788 65.1469 121.86 62.8655L126.461 62.6329L126.422 64.184C126.604 63.9642 126.799 63.7574 127.007 63.5635C127.221 63.3696 127.449 63.2048 127.689 63.0691C127.929 62.9269 128.183 62.817 128.449 62.7395C128.722 62.6555 129.008 62.6135 129.307 62.6135C129.86 62.6135 130.344 62.7039 130.76 62.8849C131.176 63.0659 131.533 63.3115 131.832 63.6217C132.131 63.9319 132.381 64.3003 132.582 64.7269C132.784 65.1469 132.946 65.5961 133.07 66.0744C133.193 66.5526 133.288 67.0535 133.353 67.577C133.418 68.094 133.46 68.6046 133.479 69.1087C133.505 69.6128 133.518 70.1008 133.518 70.5726C133.518 71.0444 133.518 71.4742 133.518 71.862Z" fill="#106B8D"></path>
  <path d="M145.167 63.0982L145.069 67.2086L142.164 67.325L141.813 76.3214L137.7 76.5347L137.329 67.5382L134.424 67.6933L134.541 63.1176L145.167 63.0982Z" fill="#106B8D"></path>
  <path d="M157.741 63.1176C157.449 65.3925 157.199 67.6578 156.991 69.9134C156.783 72.1625 156.585 74.4277 156.396 76.7092L152.399 77L152.575 75.5071C152.445 75.6557 152.292 75.785 152.117 75.8948C151.948 76.0047 151.766 76.0952 151.571 76.1663C151.376 76.2309 151.174 76.2794 150.966 76.3117C150.758 76.3375 150.56 76.3472 150.372 76.3408C149.93 76.3343 149.514 76.2503 149.124 76.0887C148.734 75.9207 148.377 75.7009 148.052 75.4295C147.727 75.1516 147.434 74.8317 147.174 74.4698C146.915 74.1014 146.694 73.7168 146.512 73.3161C146.336 72.909 146.2 72.4953 146.102 72.0752C146.011 71.6551 145.966 71.248 145.966 70.8537C145.966 70.2721 145.975 69.671 145.995 69.0506C146.021 68.4237 146.063 67.7968 146.122 67.1698C146.18 66.5429 146.255 65.9225 146.346 65.3085C146.443 64.6945 146.564 64.1064 146.707 63.5441C147.499 63.5829 148.295 63.6185 149.095 63.6508C149.894 63.6831 150.69 63.6928 151.483 63.6799C151.334 64.2421 151.184 64.8076 151.035 65.3764C150.892 65.9387 150.762 66.5074 150.645 67.0826C150.528 67.6513 150.434 68.2233 150.362 68.7985C150.291 69.3737 150.255 69.9554 150.255 70.5435C150.255 70.6792 150.261 70.8731 150.274 71.1252C150.287 71.3772 150.32 71.6261 150.372 71.8716C150.43 72.1172 150.515 72.3337 150.625 72.5212C150.742 72.7021 150.905 72.7926 151.113 72.7926C151.36 72.7926 151.581 72.6892 151.776 72.4824C151.97 72.2691 152.143 71.9847 152.292 71.6293C152.442 71.2738 152.568 70.8634 152.672 70.3981C152.783 69.9328 152.874 69.448 152.945 68.9439C153.023 68.4334 153.085 67.9195 153.13 67.4025C153.176 66.8855 153.208 66.4008 153.228 65.9483C153.254 65.4895 153.27 65.0791 153.277 64.7172C153.29 64.3552 153.296 64.0741 153.296 63.8737C153.296 63.7445 153.293 63.6185 153.286 63.4957C153.28 63.3729 153.27 63.2468 153.257 63.1176C153.68 63.1305 154.099 63.1402 154.515 63.1467C154.931 63.1531 155.35 63.1564 155.772 63.1564C156.097 63.1564 156.422 63.1564 156.747 63.1564C157.078 63.1499 157.41 63.137 157.741 63.1176Z" fill="#106B8D"></path>
  <path d="M170.15 67.4219C170.15 67.926 170.105 68.3849 170.014 68.7985C169.929 69.2057 169.793 69.5805 169.604 69.9231C169.416 70.2656 169.172 70.5823 168.873 70.8731C168.574 71.164 168.213 71.4419 167.791 71.7068L170.111 75.8173L165.725 76.6704L164.223 72.5406L163.015 72.5793L162.839 76.6122H158.647C158.68 75.1387 158.709 73.6716 158.735 72.211C158.768 70.7503 158.803 69.2832 158.842 67.8097C158.855 67.0664 158.868 66.3297 158.881 65.5993C158.894 64.869 158.92 64.1323 158.959 63.389C159.414 63.221 159.863 63.082 160.305 62.9722C160.747 62.8623 161.188 62.7783 161.63 62.7201C162.079 62.6555 162.53 62.6135 162.985 62.5941C163.447 62.5682 163.918 62.5553 164.399 62.5553C165.14 62.5553 165.854 62.6587 166.543 62.8655C167.239 63.0659 167.853 63.3696 168.386 63.7768C168.919 64.184 169.344 64.6913 169.663 65.2988C169.988 65.9063 170.15 66.614 170.15 67.4219ZM165.783 67.7321C165.783 67.4607 165.744 67.2119 165.666 66.9857C165.595 66.7594 165.484 66.5656 165.335 66.404C165.192 66.236 165.01 66.1067 164.789 66.0162C164.574 65.9193 164.321 65.8708 164.028 65.8708C163.898 65.8708 163.772 65.8805 163.648 65.8999C163.525 65.9128 163.404 65.9354 163.288 65.9677L163.132 69.5741H163.365C163.645 69.5741 163.928 69.5385 164.214 69.4674C164.506 69.3963 164.766 69.2865 164.993 69.1378C165.227 68.9892 165.416 68.7985 165.559 68.5658C165.708 68.3332 165.783 68.0553 165.783 67.7321Z" fill="#106B8D"></path>
  <path d="M182.013 68.9342C182.013 69.4965 181.974 70.0588 181.896 70.6211C180.785 70.6922 179.68 70.8085 178.582 70.9701C177.483 71.1252 176.385 71.2803 175.287 71.4354C175.456 71.9007 175.719 72.2724 176.076 72.5503C176.44 72.8282 176.873 72.9671 177.373 72.9671C177.633 72.9671 177.916 72.9186 178.221 72.8217C178.533 72.7248 178.842 72.6052 179.147 72.463C179.453 72.3144 179.745 72.156 180.024 71.988C180.304 71.8199 180.544 71.6681 180.746 71.5323L180.278 75.9336C180.024 76.1275 179.748 76.2923 179.449 76.428C179.157 76.5638 178.851 76.6736 178.533 76.7576C178.215 76.8417 177.893 76.9031 177.568 76.9418C177.243 76.9806 176.925 77 176.613 77C175.969 77 175.381 76.9128 174.848 76.7383C174.315 76.5638 173.831 76.3214 173.396 76.0112C172.967 75.6945 172.59 75.3229 172.265 74.8963C171.94 74.4698 171.67 74.0044 171.456 73.5003C171.241 72.9962 171.079 72.463 170.969 71.9007C170.858 71.3385 170.803 70.7697 170.803 70.1945C170.803 69.5935 170.858 68.9924 170.969 68.3913C171.079 67.7903 171.245 67.2119 171.466 66.656C171.693 66.1002 171.976 65.5864 172.314 65.1146C172.658 64.6364 173.058 64.2195 173.513 63.864C173.968 63.5086 174.481 63.2307 175.053 63.0303C175.631 62.83 176.268 62.7298 176.964 62.7298C177.542 62.7298 178.068 62.8106 178.543 62.9722C179.024 63.1273 179.449 63.347 179.82 63.6314C180.197 63.9093 180.522 64.2421 180.795 64.6299C181.074 65.0177 181.301 65.4442 181.477 65.9096C181.659 66.3684 181.792 66.8564 181.877 67.3734C181.968 67.884 182.013 68.4043 182.013 68.9342ZM178.114 68.4301C178.114 68.2492 178.094 68.065 178.055 67.8775C178.016 67.6837 177.951 67.5092 177.86 67.354C177.776 67.1989 177.662 67.0729 177.519 66.976C177.376 66.8726 177.198 66.8208 176.983 66.8208C176.723 66.8208 176.492 66.8919 176.291 67.0341C176.096 67.1698 175.927 67.3443 175.784 67.5576C175.641 67.7644 175.524 67.9906 175.433 68.2362C175.342 68.4818 175.274 68.708 175.228 68.9148L178.114 68.6434V68.4301Z" fill="#106B8D"></path>
  <ellipse cx="82.3547" cy="31.7814" rx="1.49729" ry="2.97813" fill="white"></ellipse>
</svg>
