<svg id="Layer_1" data-name="Layer 1" xmlns="http://www.w3.org/2000/svg" viewBox="0 0 523.34 344.46"><defs><style>.cls-1{fill:#008040;}.cls-2{fill:#bf2126;}</style></defs><path class="cls-1" d="M412.23,262a79.5,79.5,0,0,0,24.5,17.89c11,5,22.45,7.29,34.47,4.76,12.3-2.57,22.52-11,24.43-24.21,1.43-9.84-2.12-17.75-9.41-24.18-7.1-6.26-15.52-10.35-24-14.37-11.57-5.5-23.45-10.42-34.29-17.35-9.22-5.88-17.55-12.77-22.44-22.8-7.21-14.82-7-29.75.31-44.55.47-1,1-1.89,1.6-3.1H370.33c-.06,1.19-.16,2.39-.16,3.57V303.43c0,4.9.23,4.09-4,4.12H345.29c-2.88,0-2.89,0-2.9-2.82v-168c0-2.85,0-2.86-2.82-2.86H305c-5,0-6.83,1.89-6.83,6.84V307.35c-.82,0-1.51.13-2.2.13-7.69,0-15.38-.07-23.06.06-2.1,0-2.5-.69-2.49-2.6q.08-40.56,0-81.14c0-3.14,0-3.14-3.27-3.14q-47.53,0-95.06-.06c-2.3,0-2.74.77-2.74,2.88q.12,40.58,0,81.15v2.71H141.7v-168c-.3-3.23-2.29-5.31-5.5-5.35-8.41-.09-16.82,0-25.23-.06-1.28,0-1.62.57-1.59,1.72.05,1.45,0,2.9,0,4.35V280.52c0,3.26,0,3.26,3.31,3.26h15.84v23.63c-.64,0-1.26.14-1.89.14q-30.14,0-60.26.06c-2.11,0-2.71-.59-2.66-2.68.13-6.24.1-12.47,0-18.71,0-1.82.39-2.55,2.4-2.48,4.78.15,9.57,0,14.35.09,2,.05,2.59-.52,2.58-2.54q-.09-35.35,0-70.7,0-37,.06-74c0-2.27-.66-2.8-2.82-2.74-5.35.15-10.71,0-16.31,0-.07-.88-.18-1.65-.18-2.41,0-6.31.05-12.62,0-18.92,0-1.84.42-2.52,2.42-2.51,28.49.07,57,0,85.49.08a31.94,31.94,0,0,1,7.1.73c6.65,1.53,10.23,6.36,10.59,14.08.13,2.83.06,5.66.06,8.49v60.69c0,3,0,3,2.93,3h94.85c3.24,0,3.25,0,3.25-3.17V129.08a41.59,41.59,0,0,1,.46-7.14c1.35-7.52,5.88-11.6,13.59-11.81,9.93-.27,19.86-.2,29.8-.2q48.29,0,96.58.06c4.07,0,8.13-.07,12.18.06a7.3,7.3,0,0,1,2.85,1.1c1.2.62,2.27,1.73,3.53,2,7,1.65,13,5.53,19.19,9,3.87,2.21,7.48,4.9,11.17,7.43a15.65,15.65,0,0,1,2,2.07c-2.6.32-4.74.51-6.86.85a35.37,35.37,0,0,0-16.84,7.06c-12.77,10.2-12.58,27.46.33,38,6.81,5.57,14.73,9.17,22.6,12.88,10.47,5,21,9.7,31.32,15A64.27,64.27,0,0,1,513.74,223c7.85,10.08,10.81,21.69,10.19,34.24a52.76,52.76,0,0,1-16,36.09,58.54,58.54,0,0,1-32.16,16.06c-21.19,3.6-41.07-.34-59.55-11.26A81.21,81.21,0,0,1,397,282.57a2.25,2.25,0,0,1-.29-2.07c5.06-6.23,10.21-12.39,15.5-18.75" transform="translate(-63.31 -9.68)"/><path class="cls-2" d="M112.33,51.58c7.9,13.43,17.8,25,31.74,32.51,6.42,3.45,13,6.68,19.65,9.59-3.8-2.56-7.75-4.92-11.36-7.73-13.85-10.81-24-24.65-32.11-40.06a2.33,2.33,0,0,1,.57-3.09c6.27-6.23,12.48-12.52,18.8-18.71a2.94,2.94,0,0,1,2.58-.6c13.4,6.2,25.42,14.15,34,26.58a93.52,93.52,0,0,1,15,37.62c1.7,9.65,5.64,18.22,12.61,25.26.28.28.62.5,1.33,1.06v-3.59c-.12-7.82,0-15.67-.52-23.47-.25-3.49-1.66-7-3.13-10.27a20.07,20.07,0,0,1-2.18-9.4c.65-13.53,1.21-27.08,2-40.61.33-5.42,1.18-10.8,1.81-16.2,0-.25.18-.49.74-.72v3.08l-.24,38.72a33,33,0,0,0,.44,3.83l1,.06a20.8,20.8,0,0,0,.64-3.12c.57-10.43,1.07-20.85,1.64-31.27.2-3.61.54-7.21.81-10.81h.57c.11,1.22.31,2.44.33,3.67q.27,19.35.45,38.72a3.1,3.1,0,0,0,0,.86c.31.73.68,1.42,1,2.13.38-.65,1.06-1.29,1.11-2,.24-3.11.34-6.22.43-9.34q.57-17.26,1.08-34.54h.72a23.3,23.3,0,0,1,.43,3c.43,13.33.81,26.66,1.27,40a12,12,0,0,0,.84,2.87,9.12,9.12,0,0,0,1.14-2.87c.28-12.69.46-25.38.69-38.06a15.73,15.73,0,0,1,.82-5c.23,2,.56,4,.65,6.06q1,23,1.95,46.06c.09,2,0,3.92-.09,5.87A14.72,14.72,0,0,1,217.66,78a16.48,16.48,0,0,0-4.14,10.76c-.42,10.79-.57,21.59-.7,32.39a5.77,5.77,0,0,0,1.33,3.55c6,6.59,12.25,13,19.88,17.76a30.54,30.54,0,0,0,4.69,2.24,9,9,0,0,0,8.34-.59c2.32-1.33,4.76-2.45,7.15-3.67.33-.16.65-.33,1-.46,1.87-.76,4-1.41,5.55.07s.53,3.44-.28,4.84a65.21,65.21,0,0,1-6,9A114.6,114.6,0,0,1,235,172.65a23.24,23.24,0,0,1-6.61,3c-.83.29-2.51,0-2.85-.62a4.7,4.7,0,0,1-.16-3.38,30,30,0,0,1,2.51-5c4.44-7.8,3.54-15-2.46-21.55-3.57-3.91-7.24-7.72-10.87-11.57a10.85,10.85,0,0,0-1.26-.87c.26,4.14.45,7.86.73,11.57.61,8.16,1.21,16.32,1.94,24.47a30.39,30.39,0,0,0,1.29,6.55,14.91,14.91,0,0,1-.89,12.2,10.54,10.54,0,0,1-7.1,5.29,4.19,4.19,0,0,1-1.93,0c-6.82-1.66-11.25-9.13-8.84-15.75,1.61-4.41,1.89-8.86,2.3-13.41.62-6.92,1.66-13.8,2.35-20.71.57-5.77,1-11.55,1.25-17.34A4.41,4.41,0,0,0,203,122.6c-9.35-9.23-20.59-14.61-33.46-17.26-26.68-5.48-46.5-20.31-59-44.68-.2-.39-.4-.77-.61-1.15-2.48-4.57-2.48-4.57,2.34-7.87" transform="translate(-63.31 -9.68)"/><path class="cls-2" d="M447.51,85.24c-4.22-2.06-8.17-4-12.11-5.95-2.84-1.43-5.65-2.93-8.48-4.4-9.51-4.93-19-9.83-28.51-14.82a36.49,36.49,0,0,1-5-3.46c-1.1-.84-1.13-1.8.16-2.6,2-1.25,4-2.61,6.14-3.7a2.77,2.77,0,0,1,2.55.12c4.58,5.34,11.14,5.15,17.16,6.12,12.32,2,24.71,1.54,37.08.28,7.34-.75,14.7-1.51,22-2.74,5.19-.87,10.25-2.52,15.38-3.8,1.13-.29,1.78-.83,1.58-2.14a1.39,1.39,0,0,1,.52-1.22,1.48,1.48,0,0,1,1.29.45,2,2,0,0,0,2.62.75c.56-.2,1.65-.06,1.89.32a2,2,0,0,1-.22,1.93c-1.63,1.51-.63,2.41.46,3.54,9.62,10,21.53,16.27,34.42,20.9,7,2.52,14,5.16,21.11,7.38a109.17,109.17,0,0,0,13.35,2.91,8.09,8.09,0,0,0,3.8-.59c1.65-.54,2.92-.71,3,1.55,2.23.12,4.27.1,6.27.39a9.81,9.81,0,0,1,2.68,1.31c-.92.5-1.82,1.41-2.76,1.45-5.35.26-10.73.23-16.08.47-9,.41-17.92,1-26.88,1.44-.07.24-.15.48-.23.73.6.51,1.2,1,1.81,1.54,6.31,5.2,12.94,10.08,18.87,15.69,5.51,5.21,10.26,11.2,12.53,18.74,1.51,5-1.46,9.79-6.67,9.72A49.07,49.07,0,0,1,556,135.87c-5.59-1.44-11-3.58-16.61-5-5.32-1.37-10.52,0-15.46,2-1.51.63-3.15,1.61-2.71,4,2.23-.64,3.47,0,4.24,2.31a9.15,9.15,0,0,0,3.29,3.94c7.86,5.94,16.55,9.85,26.55,10a21.27,21.27,0,0,0,6.56-1.22c1-.32,2.48-1.36,2.57-2.2s-1.25-1.86-2.07-2.7a15,15,0,0,1-2.44-2.72,9.8,9.8,0,0,1,6.58,4c.95,1.39-.06,3.74-2.15,5.16a18.92,18.92,0,0,1-9.22,3.56,12,12,0,0,0-4,.91l7.23,3.16c2.82,1.24,3,2.41.43,4.13a6.66,6.66,0,0,1-4.24,1c-3.12-.41-6.17-1.3-9.63-1.56q8,6.56,16,13.13c-.19.3-.37.61-.55.91-3.62-1.68-7.37-3.14-10.82-5.1s-6.77-4.51-10.13-6.8l-.6.6a99.42,99.42,0,0,0,6.24,8.34c2.83,3.08,6.12,5.73,9.13,8.65a6.55,6.55,0,0,1,1,2.22c-.92.13-2.09.69-2.74.32a33,33,0,0,1-6.42-4.38,79.85,79.85,0,0,1-13.43-15.62,5.34,5.34,0,0,0-1.81-1.85,64.49,64.49,0,0,0,7,18.65l.52-.2-3.4-8.2.51-.29a10.82,10.82,0,0,1,1.59,1.92c1.83,3.53,3.7,7,5.27,10.69a5.28,5.28,0,0,1-.27,3.71c-1.14,2.57-3.13,2.65-4.66.29-4.8-7.44-9.26-15.07-10.81-24-.45-2.53-.63-5.1-1.29-7.65-2.14,9.43-3.11,18.87-.68,28.44-6-10.5-4.84-21.81-3.51-33.14l-.56.22a11,11,0,0,1-1.08-2.83,3.29,3.29,0,0,0-2.45-3.28,12.21,12.21,0,0,1-4.54-3.55c-1.59-1.91-.31-4.88,2.32-6.55a3.78,3.78,0,0,0,1.75-2.33c.25-4.16,2.82-6.31,6.35-7.36a45.21,45.21,0,0,1,28.62.47c3.41,1.2,6.87,2.28,10.35,3.27a8,8,0,0,0,3.6.16c4.63-.94,5.68-2.74,3.69-7-3.71-8-8.55-15.14-15.52-20.65-5.46-4.31-11-8.58-16.55-12.71a5.9,5.9,0,0,0-3.81-1c-7,.74-13.94,1.75-20.91,2.57-9.21,1.08-18.43,2-27.64,3.1-2.86.34-5.68,1.14-8.55,1.49a75.29,75.29,0,0,1-8.63.52,11.54,11.54,0,0,1-3.14-.91v-.69l2.85-1.56a21.89,21.89,0,0,0-3-2.33c-4-2.21-8-4.38-12.06-6.41a3,3,0,0,0-2.68,0c-4.25,4.13-8.35,8.41-12.76,12.92,1.42.75,2.53,1.38,3.66,1.92,8.83,4.22,17.17,9.23,23.51,16.82,2.65,3.19,4.53,7,6.7,10.62a3.27,3.27,0,0,1,.24,2.34,8,8,0,0,1-1.68-1.34c-5.32-7.46-12.93-11.91-20.81-16-5.45-2.84-10.65-6.17-16.8-7.51-2.47-.54-2.69-2.63-.76-4.65q7.86-8.26,15.69-16.56c.29-.31.53-.67,1.08-1.37M421.24,62.86a2.78,2.78,0,0,1-.14.53c.84.55,1.65,1.14,2.52,1.62,7.4,4.12,14.91,8,22.19,12.37q13,7.71,25.54,16c2.57,1.69,4.79,1.89,7.79,1.47,11.47-1.61,23-2.77,34.5-4.07,5.29-.6,10.58-1.15,15.87-1.73.06-.22.11-.44.16-.66-1.13-.68-2.24-1.4-3.39-2C518.79,82.27,511.39,78,503,75.83c-5.53-1.41-11.11-2.61-16.66-4-.64-.15-1.65-.63-1.67-1a3.41,3.41,0,0,1,.8-2.29,5.11,5.11,0,0,1,2.25-1.19c3-.94,5.89-.24,8.67,1,3.52,1.52,7,3,10.51,4.7,9.19,4.41,18.65,8.3,27.13,14.12a7.79,7.79,0,0,0,4.34.86c3-.07,6.07-.48,9.1-.68,5-.34,9.94-.64,14.91-.95a2.69,2.69,0,0,0-1.27-.75c-11.42-4-23-7.5-34.21-12C516,69.31,505.85,63.56,498.58,53.86c-.88-1.17-1.88-1-3.07-.65-5.39,1.69-10.69,3.9-16.22,4.85-10.18,1.75-20.47,3.08-30.78,4-8.42.73-16.93.59-25.39.82h-1.88m99.69,85.25c1.44-.94,1.43-1.86.53-2.82q-2-2.13-4-4.14c-.23-.22-.73-.16-1.24-.25-.07,3.64,3.36,4.62,4.76,7.21" transform="translate(-63.31 -9.68)"/><path class="cls-2" d="M471.49,126.29a8.12,8.12,0,0,1,2.84-7.64,39.59,39.59,0,0,1,20.83-9.94,77.76,77.76,0,0,1,25.06.42c.62.11,1.26.09,2.25.16-.57-2.88-1.1-5.54-1.64-8.2-.22-.91-.4-1.84-.54-2.77-.18-2.09,1-3.64,3-3.69a2.44,2.44,0,0,1,2,1.3c1,3.7,1.63,7.5,2.69,11.17.55,1.87,1.76,3.53,2.6,5.31a7.79,7.79,0,0,1,1.13,3.11,2.25,2.25,0,0,1-2.06,2.42,2.29,2.29,0,0,1-1.5-.42c-10.45-5.83-21.63-6.24-33.1-4.48-2.21.34-4.42.72-6.59,1.25a25.38,25.38,0,0,0-14.35,9.2,36.86,36.86,0,0,1-2.65,2.8" transform="translate(-63.31 -9.68)"/><path class="cls-2" d="M284.82,347.12h-3v-9.77H270.44V347h-3.11V336.65c0-2.39-.06-4.78,0-7.17.05-1.44-.22-2.46-2-2.31v-2.52h2.58c1.72-.07,2.54.69,2.49,2.46,0,2.38,0,4.77,0,7.35h11.38V329c0-4.42.37-4.72,5-4.09v2.29c-2.16-.29-2,1.19-2,2.64v17.34" transform="translate(-63.31 -9.68)"/><path class="cls-2" d="M460.33,352.76l.79-2.07c7.72,1.26,9.93-.08,9.34-5-2,.3-4.12,1-6.1.78a6.61,6.61,0,0,1-3.88-2.43c-2.49-3-2.15-8.56.42-11.28s6-2.65,9-.59l5.18-1.31c.33,1.55.91,2.64-.93,3-.31.07-.58,1.06-.59,1.63v10.64c0,2.88-.76,5.53-3.57,6.93a10,10,0,0,1-9.64-.33m10.32-14c0-3.57-1.53-5.44-4.45-5.44-2.74,0-4.4,2-4.4,5.3s1.83,5.63,4.66,5.6,4.19-1.95,4.19-5.46" transform="translate(-63.31 -9.68)"/><path class="cls-2" d="M538,347.2h-2.68c-1.73.06-2.53-.7-2.49-2.47.06-2.53.07-5.07,0-7.59-.11-3.38-2.58-4.69-5.49-3a5.84,5.84,0,0,0-2.81,5.3V347h-3v-17.5c0-1,.32-2.21-1.37-2.46-.3,0-.43-1.3-.75-2.37h2.92c1.53,0,2.23.77,2.21,2.3v6.43a24.78,24.78,0,0,1,4.07-2.31c3.85-1.29,6.86.74,7.17,4.76.18,2.31,0,4.64.12,6.94,0,.66.76,1.25,1.09,1.91s.59,1.43,1,2.52" transform="translate(-63.31 -9.68)"/><path class="cls-2" d="M497.33,330.29c-.25-2.08-1.27-3.07-3.13-3.18-2.25-.14-4.1.72-4.44,2.29-.47,2.16,1,3.15,2.62,4s3,1.38,4.48,2.21c3,1.68,4.16,4.15,3.49,7a6.5,6.5,0,0,1-6.52,5,9.76,9.76,0,0,1-7.72-3.3l1.36-1.69a45.69,45.69,0,0,0,5.65,2,3.4,3.4,0,0,0,4.15-2.35c.69-2-.53-3.17-2.08-4s-3.37-1.67-5-2.61c-2.94-1.71-4.11-4.1-3.46-6.8a6.46,6.46,0,0,1,6.17-4.63c2.37-.14,4.76.17,6.27,2.22a5.4,5.4,0,0,1,.57,3.23c0,.21-1.47.37-2.42.59" transform="translate(-63.31 -9.68)"/><path class="cls-2" d="M170,347.23c-2.44-.28-4.63.9-5.18-1.94a21.9,21.9,0,0,1-3.66,2.06,5.14,5.14,0,0,1-6.61-3l-.06-.17c-.82-2.74.53-5.15,3.71-6.07a57.45,57.45,0,0,1,6.35-1.13c.14-1.54-.16-3.07-1.88-3.53-1.52-.41-3.25-.82-4.46,1.06-.38.6-1.43.76-2.21,1.14-.71-2.59-.24-3.8,1.81-4.35a13.34,13.34,0,0,1,4.49-.44c3.47.27,5.19,2.16,5.33,5.64.09,2.1-.06,4.21.08,6.3.05.65.74,1.25,1.09,1.9s.64,1.35,1.2,2.55m-5.58-8a33.14,33.14,0,0,0-5.57,1.13,2.92,2.92,0,0,0-1.46,2.46,3.53,3.53,0,0,0,2.14,2.21c2.85.78,5.22-1.87,4.89-5.8" transform="translate(-63.31 -9.68)"/><path class="cls-2" d="M241.17,336.76c.13-1.44-.25-2.94-1.89-3.33s-3.43-.9-4.54,1.28c-.25.51-1.4.56-2.16.83-.67-2.51-.19-3.71,1.85-4.27a13.68,13.68,0,0,1,4.5-.43c3.47.28,5.18,2.17,5.32,5.66.08,2.17,0,4.35.06,6.52a3.58,3.58,0,0,0,.71,1.59c.44.66,1,1.25,1.65,2.08-3,.83-5,.81-5.29-1.68-2,2.13-4.32,3.25-7.21,2.25a4.52,4.52,0,0,1-3.28-4.16,4,4,0,0,1,2.55-4.39,78.74,78.74,0,0,1,7.73-1.95m-.1,2.42a25.87,25.87,0,0,0-5.36,1.08A3.34,3.34,0,0,0,234,343a3.59,3.59,0,0,0,2.48,2.08c2.72.52,4.77-2,4.55-5.88" transform="translate(-63.31 -9.68)"/><path class="cls-2" d="M385.55,335.71c-.34-3,.25-4.06,2.48-4.56a13.3,13.3,0,0,1,4.07-.32c3.46.32,5.17,2.19,5.3,5.69.08,2.16,0,4.34,0,6.51,0,.51.28,1.41.53,1.45,1.69.24,1.37,1.33,1.21,2.4-3.09.74-3.92.44-4.57-1.39a23.34,23.34,0,0,1-4.78,2,4.9,4.9,0,0,1-5.71-3.82,4.6,4.6,0,0,1,3.45-5.5,59.63,59.63,0,0,1,6.73-1.3c.16-1.52-.16-3-1.89-3.5-1.53-.4-3.25-.79-4.45,1.09-.37.58-1.42.73-2.42,1.2m8.59,3.51a28.1,28.1,0,0,0-5.36,1.06,3.13,3.13,0,0,0-1.61,2.56A3.66,3.66,0,0,0,389.5,345c2.81.6,5-2.08,4.59-5.83" transform="translate(-63.31 -9.68)"/><path class="cls-2" d="M229.51,347.19h-2.72c-1.73.08-2.52-.69-2.48-2.46.06-2.39-.08-4.79,0-7.18.2-4.28-3.16-4.93-6-3.29a5.6,5.6,0,0,0-2.78,5.1v7.69h-3v-11c0-1,.33-2.2-1.33-2.5-.34-.06-.47-1.29-.69-2,3.35-.93,4.35-.54,5.13,1.68a25.4,25.4,0,0,1,4.5-2.29c4-1.12,6.77.89,7.07,5,.17,2.31,0,4.64.13,6.95,0,.59.74,1.12,1,1.72s.63,1.44,1.09,2.53" transform="translate(-63.31 -9.68)"/><path class="cls-2" d="M438.18,331.32c3.95-.35,4.25-.22,5,1.92a25,25,0,0,1,4.7-2.3c4-1,6.72,1.1,6.94,5.2.11,2,0,3.91,0,5.86,0,1.12-.56,2.59,1.45,2.83.24,0,.32,1.34.5,2.21-.86.06-1.42.15-2,.15-2.53,0-2.93-.37-3-2.84a63.12,63.12,0,0,0-.09-6.74,5.66,5.66,0,0,0-1.58-3.68c-1.51-1.16-3.36-.38-4.82.68a5.72,5.72,0,0,0-2.27,4.93v7.51h-3V336.57c0-1.14.68-2.73-1.45-3-.24,0-.3-1.36-.47-2.22" transform="translate(-63.31 -9.68)"/><path class="cls-2" d="M428.33,347.19h-2.81c-1.66.09-2.39-.72-2.38-2.34a67.09,67.09,0,0,0-.08-7.37c-.13-1.28-.77-3.19-1.67-3.54a6.29,6.29,0,0,0-4.44.54c-1.86.92-2.54,2.86-2.55,4.94v7.66h-3v-11c0-1,.32-2.2-1.35-2.48-.32,0-.45-1.29-.66-2,3.33-.92,4.36-.5,5,1.64a26,26,0,0,1,4.92-2.32c3.87-.93,6.55,1.22,6.75,5.21.1,2.16,0,4.34,0,6.51,0,.89-.24,1.86,1.19,2.15.4.08.57,1.31,1,2.41" transform="translate(-63.31 -9.68)"/><path class="cls-2" d="M91.56,347.19H88.64a2,2,0,0,1-2.25-1.71,2.53,2.53,0,0,1,0-.55v-7.17c0-1.61,0-3.32-1.85-4A4.21,4.21,0,0,0,79.6,335a10,10,0,0,0-1.88,4.64,59.75,59.75,0,0,0-.08,7.45h-3v-11c0-1,.37-2.2-1.32-2.49-.33-.06-.44-1.37-.66-2.14,3.75-.58,4.27-.35,5.08,1.83A24.25,24.25,0,0,1,82.26,331c4.09-1.11,6.88,1,7.09,5.24.11,2.23,0,4.49.09,6.73,0,.59.75,1.11,1,1.71s.62,1.45,1.07,2.53" transform="translate(-63.31 -9.68)"/><path class="cls-2" d="M152.08,344.86v2.34H149.9c-1.82.11-2.66-.68-2.61-2.54a57,57,0,0,0,0-7.16c-.12-1.25-.65-3.13-1.48-3.46a6.34,6.34,0,0,0-4.45.33c-2,.89-2.73,2.88-2.75,5V347h-3V336c0-1,.37-2.2-1.33-2.48-.33,0-.44-1.37-.67-2.14,3.75-.57,4.33-.32,5.08,1.89a23.34,23.34,0,0,1,4.24-2.27c4.33-1.31,7.26.94,7.4,5.5.06,2,.1,3.91,0,5.86-.09,1.43.21,2.39,1.81,2.45" transform="translate(-63.31 -9.68)"/><path class="cls-2" d="M118.69,339.38H107.44a4.87,4.87,0,0,0,2.26,4.79c2,1.4,4.13,1.18,7.7-.73l1.13,1.63c-2.46,3.35-9.41,3.47-12.51-.41-3.85-4.8-1.62-12.27,4.14-13.68,5.29-1.3,9.47,2.67,8.53,8.4m-11-2.29h8c-.34-2.76-1.48-3.9-3.78-3.89a4,4,0,0,0-4.25,3.73c0,.05,0,.11,0,.16" transform="translate(-63.31 -9.68)"/><path class="cls-2" d="M334.6,339.4H323.33c-.13,5.25,4.27,7,9.95,4,.36.56.74,1.13,1.11,1.68A8.61,8.61,0,0,1,324,346.4a8.71,8.71,0,0,1-3.51-10.28,7.68,7.68,0,0,1,8.19-5.41c4,.37,6.41,3.63,6,8.65m-3-2.25c-.47-3-1.69-4.08-4.11-4a3.87,3.87,0,0,0-3.94,3.8v.2Z" transform="translate(-63.31 -9.68)"/><path class="cls-2" d="M191.26,339.17a8.45,8.45,0,1,1,16.9-.1h0a8.45,8.45,0,0,1-16.9.1m13.92-.07a5.62,5.62,0,0,0-5.41-5.82h-.08a5.55,5.55,0,0,0-5.44,5.67v.18a5.49,5.49,0,1,0,10.93,1.05,4.61,4.61,0,0,0,0-1.05" transform="translate(-63.31 -9.68)"/><path class="cls-2" d="M556.66,339.16a8.46,8.46,0,1,1-8.5-8.42h.1a8.35,8.35,0,0,1,8.4,8.3v.12M542.75,339c-.06,3.42,2.33,6.07,5.46,6.06a5.91,5.91,0,1,0-5.44-6.34c0,.09,0,.19,0,.28" transform="translate(-63.31 -9.68)"/><path class="cls-2" d="M298,330.74a8.45,8.45,0,1,1-8.37,8.53v-.08a8.32,8.32,0,0,1,8.17-8.45h.2m5.55,8.48a5.48,5.48,0,0,0-10.91-1,5.08,5.08,0,0,0,0,.78c-.05,3.43,2.33,6.06,5.47,6.06a5.63,5.63,0,0,0,5.47-5.79v-.06" transform="translate(-63.31 -9.68)"/><path class="cls-2" d="M576.68,339.21a8.45,8.45,0,1,1-16.9-.18h0a8.45,8.45,0,0,1,16.9.18m-13.92-.15c0,3.34,2.24,5.92,5.29,6a5.65,5.65,0,0,0,5.63-5.88,5.47,5.47,0,0,0-10.91-.77c0,.22,0,.43,0,.65" transform="translate(-63.31 -9.68)"/><path class="cls-2" d="M372.14,329.34H370c-.65-2.34-1.19-2.52-5.52-1.85V347h-3.1V327.65c-3.83-1-5.06-.58-5.88,1.71h-2.22a14.22,14.22,0,0,0-.11-2.2c-.15-1.9.76-2.55,2.59-2.52,4.2.07,8.4,0,12.6,0s4.39.14,3.85,4.7" transform="translate(-63.31 -9.68)"/><path class="cls-2" d="M517.33,335.82h-2c-1.42-2.54-3.25-3.18-5.82-2.06a6,6,0,0,0-3,7.33,5.73,5.73,0,0,0,7.22,3.66,5.81,5.81,0,0,0,.92-.4c.78-.37,1.5-.87,2.35-1.37.39.61.76,1.21,1.11,1.77a8.51,8.51,0,1,1-2.24-13c1.54.89,2,2.23,1.54,4.1" transform="translate(-63.31 -9.68)"/><path class="cls-2" d="M65.33,327.4l-1.91-.31v-2.31h7.14v2.3l-2,.32v16.9l2,.55v2.24H63.43c0-.74-.08-1.43-.12-2.23l2-.48" transform="translate(-63.31 -9.68)"/><path class="cls-2" d="M310.91,333.77c-1.78,0-2.55-.69-1.85-2.45l1.83-.34c.08-1.39.15-2.68.24-4.1h2.65c.06,1.31.13,2.65.2,4.13l3.55.27c.76,3.51-2.2,1.8-3.59,2.72,0,2.45-.14,5.12,0,7.77.14,2.12,1.85,2.74,3.83,3V347c-4.26.53-6.77-1.51-6.89-5.56-.07-2.47,0-4.93,0-7.65" transform="translate(-63.31 -9.68)"/><path class="cls-2" d="M180.47,344.76c0,.86-.08,1.55-.11,2.2-4.28.56-6.78-1.45-6.93-5.5-.09-2.45,0-4.91,0-7.52-1.25-.33-2.76-.56-1.84-2.59l1.83-.4c.08-1.34.17-2.68.25-4.11h2.66c.07,1.4.15,2.73.24,4.2l3.4.2c1.12,3.64-2.18,1.75-3.43,2.81,0,2.48-.16,5.22,0,7.93.15,2,1.93,2.49,3.93,2.78" transform="translate(-63.31 -9.68)"/><path class="cls-2" d="M102.16,345c0,.64-.07,1.27-.09,1.88-4,.79-6.78-1.33-6.95-5.32-.11-2.52,0-5,0-7.7-1.44-.24-2.7-.63-1.83-2.56l1.82-.34c.08-1.39.15-2.67.23-4.09H98c.06,1.39.12,2.67.18,4.14l3.53.23c.82,3.48-2.09,1.87-3.5,2.68,0,2.6-.33,5.44.15,8.13.21,1.22,2,2.14,3.15,3.2l.66-.25" transform="translate(-63.31 -9.68)"/><path class="cls-2" d="M585.41,347.2h-2.63c-1.85.11-2.6-.74-2.57-2.59.06-4.93,0-9.86,0-14.78,0-1.08.63-2.59-1.42-2.81-.25,0-.36-1.33-.58-2.27,1,0,1.73-.06,2.43-.11,1.86-.13,2.61.75,2.59,2.58v15.44c0,.91-.17,1.84,1.23,2.13.39.09.55,1.32,1,2.41" transform="translate(-63.31 -9.68)"/><path class="cls-2" d="M336.73,324.65h2.46c1.87-.1,2.58.78,2.56,2.62v15.42c0,.93-.17,1.84,1.24,2.12.38.07.54,1.33.92,2.4h-2.6c-1.87.12-2.59-.76-2.57-2.59.05-4.93,0-9.85,0-14.77,0-1.1.59-2.58-1.42-2.84-.25,0-.33-1.33-.56-2.36" transform="translate(-63.31 -9.68)"/><path class="cls-2" d="M247.49,324.65h2.24c2-.16,2.88.71,2.85,2.79-.09,5.06,0,10.14,0,15.21,0,.91-.2,1.85,1.21,2.15.4.08.55,1.31.93,2.29l-2.58.12c-1.86.12-2.6-.74-2.58-2.59.05-5,0-10,0-15,0-1.07.45-2.41-1.43-2.61-.25,0-.37-1.33-.63-2.37" transform="translate(-63.31 -9.68)"/><path class="cls-2" d="M377,333.75l5.55-3.27v3.35c-4.43,1.19-5.55,2.64-5.57,7.3v5.93h-3V335.88c0-1,.26-2-1.27-2.31-.36-.06-.49-1.33-.74-2.1,3.94-.71,4.6-.34,5,2.28" transform="translate(-63.31 -9.68)"/><path class="cls-2" d="M125.93,347.13h-3c0-3.23.09-6.45,0-9.67-.05-1.43,1-3.43-1.56-4-.24-.06-.2-1.27-.29-1.94,3.71-.76,4.49-.34,5,2.8,1.51-1.62,2.85-3.4,5.46-3v2.52c-4.64,1.45-5.57,2.71-5.57,7.71v5.62" transform="translate(-63.31 -9.68)"/><path class="cls-2" d="M189.5,347.19h-2.61c-1.82.1-2.66-.69-2.61-2.56.07-2.89-.06-5.78.05-8.67,0-1.43-.23-2.39-1.83-2.46v-2.34h2.59c1.5,0,2.21.78,2.2,2.32,0,3.1-.07,6.22.06,9.32,0,.63.79,1.22,1.13,1.87a26.73,26.73,0,0,1,1,2.5" transform="translate(-63.31 -9.68)"/><path class="cls-2" d="M407.92,344.71v2.49h-2.19c-1.81.08-2.65-.72-2.61-2.58.06-3,.05-6.08,0-9.11,0-.57-.3-1.57-.59-1.63-1.71-.31-1.28-1.4-1.09-2.72h2.32c1.75,0,2.43.86,2.39,2.58-.07,2.89,0,5.78,0,8.68,0,1.28-.24,2.69,1.8,2.29" transform="translate(-63.31 -9.68)"/><path class="cls-2" d="M436.58,347.19h-2.36c-1.63,0-2.39-.72-2.38-2.36v-9.11c0-.93.14-1.83-1.22-2.14-.4-.09-.54-1.33-.94-2.43h2.83c1.59,0,2.36.73,2.33,2.4v9.32c0,.57.32,1.57.6,1.62,1.78.27,1.21,1.42,1.11,2.69" transform="translate(-63.31 -9.68)"/><path class="cls-2" d="M186.71,327.56a10.92,10.92,0,0,1-1.15.12c-.35,0-.7-.07-1.18-.11v-2.76h2.33" transform="translate(-63.31 -9.68)"/><path class="cls-2" d="M432,324.75h2.36v2.6c-2.56.63-2.68.5-2.32-2.6" transform="translate(-63.31 -9.68)"/><path class="cls-2" d="M405.52,327.65h-2.27v-2.87l2.27-.11" transform="translate(-63.31 -9.68)"/></svg>