<?xml version="1.0" encoding="utf-8"?>
<!-- Generator: Adobe Illustrator 14.0.0, SVG Export Plug-In . SVG Version: 6.00 Build 43363)  -->
<!DOCTYPE svg PUBLIC "-//W3C//DTD SVG 1.1//EN" "http://www.w3.org/Graphics/SVG/1.1/DTD/svg11.dtd">
<svg version="1.1" id="Layer_1" xmlns="http://www.w3.org/2000/svg" xmlns:xlink="http://www.w3.org/1999/xlink" x="0px" y="0px"
	 width="159px" height="74px" viewBox="0 0 159 74" enable-background="new 0 0 159 74" xml:space="preserve">
<g>
	<path fill="#1F2E60" d="M62.645,17.538c0,0,0.298,0.127,0.645,0.191l1.007,13.784l0.344-0.094l-0.88-13.659
		c0.16-0.015,0.306-0.061,0.413-0.161c0.436-0.405,0.25-1.372-0.468-1.34c-0.014,0-0.027,0.003-0.042,0.004L63.55,14.48l-0.5-0.031
		l0.139,1.896c-0.476,0.137-0.826,0.381-0.826,0.381l-2.308,0.717l-1.098-0.902c-0.009-0.031-0.017-0.065-0.026-0.096
		c-0.251-0.898-0.581-0.914-0.614-1.518c-0.027-0.5,0.275-0.59,0.275-0.59s0.58-0.084,0.701-0.559
		c0.026-0.102,0.058-0.235,0.091-0.379c0.06,0.004,0.125-0.007,0.179-0.057c0.059-0.054,0-0.318-0.05-0.503
		c0.025-0.111,0.048-0.215,0.068-0.306c0.048-0.107,0.084-0.149,0.242-0.126c0,0,0.946,0.073,0.925-0.187
		c-0.021-0.26-1.03-0.488-1.03-0.488s0.042-0.916-1.081-1.166c-1.622-0.36-2.25,0.857-2.163,1.562
		c0.008,0.065,0.03,0.125,0.066,0.168c-0.219,0.84,0.362,1.425,0.362,1.425l-0.073,0.619c-0.303-0.315-1.511-1.501-2.485-1.42
		c-0.851,0.071-1.664,1.269-1.33,2.009c-0.406,0.309-0.637,0.793-0.479,1.55c0.058,0.28-0.167,1.645-0.027,2.66l-0.473,1.341
		l0.333,0.207l0.332-0.859c0.008,0.016,0.014,0.035,0.022,0.049c0.03,0.052,0.088,0.097,0.157,0.136l-0.032,1.881l0.353-0.021
		l0.107-1.708c0.372,0.083,0.816,0.113,1.04,0.118l0.108,0.669c0.121,0.138,0.289,0.231,0.475,0.264c0,0-0.087,0.481-0.148,0.83
		c-0.174,0.975-0.545,3.246-0.545,3.246s-0.629,0.827-1.136,1.181c-0.358,0.247-1.146,1.096-1.42,1.61
		c-0.071,0.132,0.074,0.454,0.009,0.581c-0.28,0.54-0.425,0.659-0.522,0.776c-0.12,0.144-0.334,0.42-0.493,0.631
		c-0.11,0.145-0.054,0.356,0.116,0.447c0.665,0.354,2.139,1.127,2.377,1.143c0.31,0.021,0.374-0.771,0.092-0.968
		c-0.282-0.198-0.866-0.548-0.866-0.548s0.034-0.208,0.443-0.736c0.068-0.087,0.333-0.026,0.407-0.121
		c0.821-1.045,2.546-3.283,2.799-3.639c0.412-0.582,1.288-1.895,1.288-1.895s0.855,1.554,1.307,2.341
		c0.246,0.427,0.242,2.863,0.475,3.607c0.085,0.269,0.397-0.063,0.496,0.132c0.13,0.255,0.19,0.832,0.19,0.832
		s-0.355,1.125,0.246,1.151c0.626,0.026,3.194-0.043,3.158-0.217c-0.029-0.144-0.084-0.734-0.712-0.788
		c-0.313-0.028-1.231-0.378-1.231-0.378s-0.019-0.064-0.165-0.758c-0.046-0.226,0.234-0.029,0.123-0.737
		c-0.083-0.442-0.626-2.765-0.848-4.112c-0.222-1.346-1.53-3.916-1.16-4.04c0.179-0.059,0.225-0.945,0.126-2.033l0.935,0.372
		L62.645,17.538z"/>
	<path fill="#1F2E60" d="M48.102,22.188c0,0,0.168,0.072,0.364,0.109l0.567,7.769l0.194-0.052l-0.497-7.699
		c0.089-0.008,0.172-0.035,0.232-0.091c0.246-0.229,0.141-0.773-0.264-0.756c-0.008,0-0.015,0.002-0.022,0.002l-0.066-1.004
		l-0.28-0.018l0.077,1.07c-0.268,0.078-0.464,0.214-0.464,0.214l-1.301,0.404l-0.619-0.508c-0.005-0.017-0.009-0.036-0.015-0.055
		c-0.142-0.506-0.327-0.514-0.346-0.854c-0.015-0.282,0.154-0.333,0.154-0.333s0.329-0.047,0.396-0.314
		c0.014-0.058,0.032-0.134,0.051-0.214c0.034,0.002,0.071-0.005,0.101-0.033c0.033-0.03,0-0.179-0.028-0.283
		c0.014-0.063,0.027-0.122,0.039-0.173c0.026-0.06,0.047-0.084,0.135-0.071c0,0,0.534,0.041,0.522-0.105s-0.581-0.275-0.581-0.275
		s0.023-0.516-0.61-0.656c-0.914-0.204-1.268,0.482-1.218,0.879c0.004,0.037,0.016,0.071,0.037,0.096
		c-0.124,0.474,0.204,0.803,0.204,0.803l-0.041,0.349c-0.171-0.179-0.852-0.846-1.401-0.8c-0.479,0.039-0.938,0.715-0.75,1.132
		c-0.229,0.174-0.359,0.447-0.271,0.874c0.033,0.157-0.093,0.926-0.015,1.499l-0.266,0.755l0.188,0.118l0.187-0.485
		c0.004,0.01,0.007,0.021,0.013,0.029c0.016,0.029,0.049,0.055,0.087,0.076l-0.018,1.062l0.2-0.013l0.059-0.962
		c0.21,0.047,0.461,0.064,0.586,0.067l0.061,0.376c0.069,0.079,0.164,0.13,0.269,0.15c0,0-0.049,0.271-0.084,0.467
		c-0.097,0.55-0.306,1.829-0.306,1.829s-0.355,0.467-0.641,0.666c-0.202,0.14-0.646,0.619-0.801,0.908
		c-0.039,0.075,0.042,0.256,0.005,0.329c-0.157,0.303-0.239,0.371-0.294,0.437c-0.068,0.081-0.188,0.237-0.278,0.355
		c-0.061,0.082-0.03,0.201,0.066,0.253c0.375,0.199,1.205,0.635,1.34,0.643c0.174,0.013,0.21-0.432,0.052-0.544
		c-0.159-0.112-0.488-0.311-0.488-0.311s0.019-0.116,0.25-0.413c0.038-0.051,0.188-0.016,0.229-0.069
		c0.462-0.588,1.436-1.85,1.578-2.051c0.232-0.33,0.726-1.069,0.726-1.069s0.482,0.878,0.736,1.32
		c0.14,0.24,0.138,1.614,0.269,2.032c0.047,0.152,0.223-0.034,0.279,0.077c0.073,0.144,0.107,0.469,0.107,0.469
		s-0.2,0.635,0.139,0.648c0.354,0.013,1.8-0.023,1.78-0.123c-0.016-0.082-0.047-0.413-0.402-0.444
		c-0.176-0.015-0.693-0.213-0.693-0.213s-0.011-0.036-0.092-0.428c-0.026-0.126,0.131-0.016,0.069-0.417
		c-0.046-0.247-0.353-1.558-0.478-2.316c-0.125-0.758-0.862-2.207-0.653-2.276c0.1-0.033,0.125-0.533,0.07-1.146l0.528,0.209
		L48.102,22.188z"/>
	<path fill="#1F2E60" d="M1.12,23.657c-0.531,0.073-0.84-0.589-0.435-0.939c1.294-1.117,3.967-2.469,8.911-1.5
		c7.797,1.525,18.193,4.407,28.082-2.429c9.888-6.837,22.827-21.641,27.46-17.685c4.632,3.956,6.159,6.215,15.199,9.096
		c8.676,2.766,26.408,10.476,35.265,17.236c0.438,0.335,0.154,1.04-0.396,0.967c-1.05-0.137-2.843-0.584-5.883-1.76
		c-6.724-2.6-8.024-4.238-11.922-4.294c-3.898-0.057-5.142-4.69-10.059-4.408c-4.915,0.283-3.276,1.752-10.057-2.26
		c-6.78-4.011-11.301-4.633-11.809-8.532c-0.509-3.898-1.695-5.311-8.589-0.903C49.996,10.652,42.141,22.63,31.18,25.287
		c-10.961,2.655-20.398-1.583-24.748-1.81C4.066,23.355,2.268,23.499,1.12,23.657"/>
	<path fill="#078C45" d="M37.847,32.359c-0.531,0.072-0.84-0.589-0.435-0.94c1.294-1.118,3.967-2.466,8.911-1.5
		c7.797,1.526,18.193,4.408,28.082-2.43c9.888-6.836,22.826-21.64,27.459-17.684c4.635,3.954,6.16,6.215,15.199,9.096
		c8.678,2.766,26.571,10.992,35.428,17.753c0.44,0.335,0.156,1.039-0.394,0.966c-1.052-0.136-2.844-0.584-5.885-1.76
		c-6.723-2.599-8.187-4.754-12.086-4.811c-3.897-0.057-5.142-4.69-10.057-4.407c-4.915,0.282-3.278,1.751-10.057-2.26
		c-6.78-4.012-11.302-4.633-11.81-8.532c-0.508-3.898-1.695-5.312-8.588-0.903c-6.893,4.406-14.747,16.384-25.709,19.04
		c-10.961,2.657-20.396-1.582-24.747-1.808C40.792,32.056,38.994,32.201,37.847,32.359"/>
	<path fill="#03984B" d="M110.075,34.271c1.259,0,2.279-1.021,2.279-2.279c0-1.259-1.021-2.28-2.279-2.28s-2.278,1.021-2.278,2.28
		C107.797,33.25,108.816,34.271,110.075,34.271"/>
	<path fill="#03984B" d="M35.437,35.175v-3.308c0-0.71-0.577-1.288-1.289-1.288h-9.41H10.651h-0.528v4.596
		c0,0,2.411-3.203,4.558-3.203h3.691c0,0,2.147-0.037,2.147,2.336v26.366h3.147c0.759,0,1.373-0.614,1.373-1.372V34.308
		c0-2.373,2.147-2.336,2.147-2.336h3.692C33.026,31.972,35.437,35.175,35.437,35.175"/>
	<path fill="#03984B" d="M44.76,41.114c0.016-0.906,0.028-2.242-0.02-2.813c-0.075-0.906-1.884-2.525-4.595-1.396
		c-2.277,0.949-5.534,6.512-7.119,9.432v-8.632c0-0.545-0.443-0.989-0.99-0.989H28.43v24.07h3.606c0.547,0,0.99-0.44,0.99-0.989
		V49.631c1.568-3.08,5.83-10.984,8.286-10.953c2.024,0.025,2.871,1.491,3.212,2.476C44.568,41.28,44.757,41.249,44.76,41.114"/>
	<path fill="#03984B" d="M60.41,40.447c-2.485-3.917-6.177-4.708-9.793-2.789c-3.616,1.924-6.253,8.211-5.951,13.411
		c0.3,5.199,3.954,8.891,8.022,9.604c3.878,0.683,7.825-1.166,9.621-3.134c0.145-0.162,0.144-0.403-0.002-0.562
		c-0.15-0.159-0.399-0.177-0.566-0.032c-0.78,0.673-3.075,2.418-6.076,2.599c-2.98,0.181-5.118-1.394-6.068-3.282
		c-0.327-0.652-0.486-1.374-0.505-2.101c-0.058-2.256-0.058-3.968-0.058-4.071h12.59c0.805,0,1.427-0.701,1.335-1.501
		C62.731,46.625,62.104,43.116,60.41,40.447 M57.188,48.696h-8.154c0,0-0.263-5.046,0.98-7.759c1.996-4.354,6.365-3.051,7.534-0.414
		c0.78,1.762,1.022,4.822,1.097,6.655C58.679,48.009,58.018,48.696,57.188,48.696"/>
	<path fill="#03984B" d="M84.443,36.566h-2.336L69.036,49.318V29.525c0-0.625-0.506-1.132-1.131-1.132h-3.087v32.281h3.087
		c0.625,0,1.131-0.506,1.131-1.129v-8.806l10.923,9.935h4.822l-12.844-12.39L84.443,36.566z"/>
	<path fill="#03984B" d="M105.913,36.566h-2.336L90.509,49.318V29.525c0-0.625-0.508-1.132-1.134-1.132h-3.086v32.281h3.086
		c0.626,0,1.134-0.506,1.134-1.129v-8.806l10.921,9.935h4.822l-12.844-12.39L105.913,36.566z"/>
	<path fill="#03984B" d="M107.986,37.875v22.726h3.438c0.619,0,1.12-0.501,1.12-1.12V36.755h-3.438
		C108.487,36.755,107.986,37.258,107.986,37.875"/>
	<path fill="#03984B" d="M130.925,37.696c-1.11-0.787-4.331-2.184-7.181,1.45c-2.056,2.617-4.045,6.567-5.212,9.132V37.733
		c0-0.604-0.488-1.089-1.09-1.089h-3.469v23.88h3.469c0.602,0,1.09-0.487,1.09-1.091v-8.868l4.371-7.519c0,0,2.07-3.427,4.029-3.39
		c1.455,0.027,2.675,1.356,2.675,3.502v16.046c0,0.687,0.557,1.245,1.241,1.245h3.166V44.291
		C134.015,41.413,132.666,38.933,130.925,37.696"/>
	<path fill="#03984B" d="M142.715,55.63c-1.625-0.564,1.181-2.425,2.463-3.201c0.545,0.098,1.105,0.148,1.682,0.148
		c4.888,0,8.852-3.593,8.852-8.024c0-2.401-1.167-4.555-3.012-6.027h4.933c0.292,0,0.527-0.233,0.527-0.525
		s-0.235-0.528-0.527-0.528h-6.611c-1.24-0.602-2.657-0.942-4.161-0.942c-4.89,0-8.854,3.592-8.854,8.023
		c0,3.379,2.305,6.266,5.564,7.45c-1.767,0.777-4.329,2.144-5.187,3.813c-1.356,2.639,4.03,3.353,4.03,3.353
		s-8.919,2.931-6.103,7.081c2.224,3.279,7.157,3.542,11.037,3.542c3.879,0,12.619-2.976,10.396-7.272
		C155.522,58.227,144.787,56.344,142.715,55.63 M142.828,44.515c0-3.596,1.788-6.515,3.993-6.515s3.993,2.919,3.993,6.515
		c0,3.6-1.788,6.518-3.993,6.518S142.828,48.114,142.828,44.515 M149.27,68.248c-4.671,0.714-8.701-0.527-8.325-3.77
		c0.378-3.237,3.768-5.008,3.768-5.008s5.123,0.678,7.911,3.049C154.003,63.698,153.94,67.531,149.27,68.248"/>
	<path fill="#1F2E60" d="M19.806,64.592h2.967c0.479,0,0.93,0.053,1.349,0.155c0.419,0.107,0.784,0.263,1.091,0.473
		c0.308,0.209,0.551,0.47,0.728,0.783c0.176,0.31,0.265,0.676,0.265,1.089c0,0.42-0.088,0.786-0.263,1.098
		c-0.174,0.312-0.405,0.574-0.691,0.782c-0.286,0.211-0.612,0.366-0.979,0.47s-0.743,0.153-1.126,0.153h-1.416v3.877h-1.925V64.592z
		 M21.731,68.789h0.845c0.266,0,0.5-0.045,0.701-0.134c0.201-0.088,0.369-0.213,0.505-0.366c0.135-0.156,0.235-0.333,0.3-0.534
		c0.066-0.202,0.098-0.412,0.098-0.637c0-0.265-0.043-0.502-0.13-0.706c-0.088-0.207-0.206-0.38-0.357-0.521
		c-0.15-0.144-0.326-0.252-0.527-0.324c-0.201-0.074-0.417-0.111-0.648-0.111h-0.787V68.789z"/>
	<polygon fill="#1F2E60" points="34.989,64.592 36.908,64.592 36.908,72.563 41.44,72.563 41.44,73.472 34.989,73.472 	"/>
	<path fill="#1F2E60" d="M53.813,64.406l4.166,9.065h-1.992l-1.113-2.422h-3.688l-1.166,2.422h-1.244l4.329-9.065H53.813z
		 M51.6,70.224h2.908l-1.317-2.867h-0.236L51.6,70.224z"/>
	<polygon fill="#1F2E60" points="66.18,64.592 67.346,64.592 72.638,70.235 72.638,64.592 73.739,64.592 73.739,73.602 
		73.031,73.602 67.3,67.369 67.3,73.472 66.18,73.472 	"/>
	<polygon fill="#1F2E60" points="82.934,64.592 84.101,64.592 89.392,70.235 89.392,64.592 90.494,64.592 90.494,73.602 
		89.786,73.602 84.056,67.369 84.056,73.472 82.934,73.472 	"/>
	<polygon fill="#1F2E60" points="106.064,64.592 106.064,65.351 101.61,65.351 101.61,68.279 105.31,68.279 105.31,69.036 
		101.61,69.036 101.61,72.563 106.064,72.563 106.064,73.472 99.691,73.472 99.691,64.592 	"/>
	<path fill="#1F2E60" d="M114.421,64.592h3.209c0.556,0,1.039,0.06,1.454,0.179c0.414,0.121,0.76,0.288,1.036,0.504
		c0.273,0.217,0.481,0.474,0.618,0.771c0.138,0.294,0.208,0.619,0.208,0.968c0,0.257-0.049,0.5-0.144,0.728
		c-0.093,0.227-0.227,0.435-0.402,0.625c-0.174,0.191-0.385,0.358-0.631,0.503c-0.248,0.142-0.523,0.261-0.829,0.353l3.163,4.25
		h-2.161l-2.981-4.013h-0.62v4.013h-1.92V64.592z M116.341,68.678h0.601c0.286,0,0.548-0.034,0.791-0.11
		c0.241-0.074,0.453-0.182,0.632-0.317c0.179-0.141,0.317-0.308,0.419-0.509c0.1-0.202,0.149-0.428,0.149-0.681
		c0-0.236-0.038-0.454-0.117-0.648c-0.078-0.197-0.188-0.366-0.326-0.507c-0.141-0.144-0.306-0.256-0.499-0.333
		c-0.192-0.077-0.403-0.116-0.636-0.116h-1.014V68.678z"/>
</g>
</svg>
